<svg id="Layer_1" enable-background="new 0 0 64 64" viewBox="0 0 64 64" xmlns="http://www.w3.org/2000/svg"><path d="m56 43.3h-6.1c-.5 0-1 .4-1 1v1.5h-8.7v-4.1c0-.3-.2-.5-.5-.5h-1.7v-4.1h7.2c.3 0 .5-.2.5-.5v-5.5c3.2-3.4 4.9-7.9 4.9-12.6-.1-10.2-8.4-18.5-18.6-18.5s-18.6 8.3-18.6 18.6c0 4.7 1.7 9.1 4.9 12.6v5.5c0 .3.2.5.5.5h7.2v4.1h-2c-.3 0-.5.2-.5.5v4.1h-8.5v-1.5c0-.5-.4-1-1-1h-6c-.5 0-1 .4-1 1v18.6c0 .5.4 1 1 1h6.1c.5 0 1-.4 1-1v-1.5h33.9v1.5c0 .5.4 1 1 1h6c.5 0 1-.4 1-1v-18.7c0-.6-.5-1-1-1zm-6.1 7.2h6.1v6.3h-6.1zm0-6.2h6.1v5.2h-6.1zm-6.6 2.5v13.8h-22.8v-13.8zm-24.1-16.2c-3.1-3.3-4.8-7.5-4.8-12 0-9.7 7.9-17.6 17.6-17.6s17.6 7.9 17.6 17.6c0 4.5-1.7 8.8-4.8 12-.1.1-.1.2-.1.3v5.2h-25.4v-5.2c0-.1 0-.2-.1-.3zm7.8 6.5h10v4.1h-10zm-2.4 5.1h14.7v3.6h-14.7zm-16.6 8.3h6.1v6.3h-6.1zm6.1-6.2v5.2h-6.1v-5.2zm-6.1 18.7v-5.2h6.1v5.2zm7.1-16.2h4.4v13.8h-4.4zm29.2 13.7v-13.7h4.6v13.8h-4.6zm5.6 2.5v-5.2h6.1v5.2z"/><path d="m32 32.7c7.8 0 14.2-6.4 14.2-14.2s-6.4-14.2-14.2-14.2-14.1 6.4-14.1 14.2c-.1 7.9 6.3 14.2 14.1 14.2zm0-27.3c7.3 0 13.2 5.9 13.2 13.2s-5.9 13.2-13.2 13.2-13.2-5.9-13.2-13.2 5.9-13.2 13.2-13.2z"/><path d="m28.1 21.8c-.2.2-.2.5 0 .7.1.1.2.1.3.1s.3 0 .3-.1l1.8-1.8c.5.2 1 .3 1.5.3 1.4 0 2.5-1.1 2.5-2.5 0-.5-.2-1-.4-1.3l3.5-3.5c.2-.2.2-.5 0-.7s-.5-.2-.7 0l-3.4 3.4c-.4-.3-.9-.4-1.4-.4-1.4 0-2.5 1.1-2.5 2.5 0 .5.2 1 .4 1.4zm3.9-4.7c.8 0 1.5.7 1.5 1.5s-.7 1.5-1.5 1.5c-.4 0-.8-.2-1-.4-.3-.3-.5-.7-.5-1.1 0-.9.7-1.5 1.5-1.5z"/><path d="m35.1 24.9h-6.1c-.3 0-.5.2-.5.5s.2.5.5.5h6.1c.3 0 .5-.2.5-.5s-.3-.5-.5-.5z"/><path d="m34.1 28.2h-4.4c-.3 0-.5.2-.5.5s.2.5.5.5h4.4c.3 0 .5-.2.5-.5s-.2-.5-.5-.5z"/><path d="m23.6 18.7c0-.8-.6-1.4-1.4-1.4s-1.4.6-1.4 1.4.6 1.4 1.4 1.4 1.4-.6 1.4-1.4zm-1.5.4c-.2 0-.4-.2-.4-.4s.2-.4.4-.4.4.2.4.4-.1.4-.4.4z"/><path d="m23.5 15.2c.8 0 1.4-.6 1.4-1.4s-.6-1.4-1.4-1.4-1.4.6-1.4 1.4.6 1.4 1.4 1.4zm0-1.8c.2 0 .4.2.4.4s-.2.4-.4.4-.4-.2-.4-.4.2-.4.4-.4z"/><path d="m27.1 11.6c.8 0 1.4-.6 1.4-1.4s-.6-1.4-1.4-1.4-1.4.6-1.4 1.4.6 1.4 1.4 1.4zm0-1.8c.2 0 .4.2.4.4s-.2.4-.4.4-.4-.2-.4-.4.2-.4.4-.4z"/><path d="m40.4 18.7c0 .8.6 1.4 1.4 1.4s1.4-.6 1.4-1.4-.6-1.4-1.4-1.4-1.4.6-1.4 1.4zm1.8 0c0 .2-.2.4-.4.4s-.4-.2-.4-.4.2-.4.4-.4.4.2.4.4z"/><path d="m40.5 15.2c.8 0 1.4-.6 1.4-1.4s-.6-1.4-1.4-1.4-1.4.6-1.4 1.4.6 1.4 1.4 1.4zm0-1.8c.2 0 .4.2.4.4s-.2.4-.4.4-.5-.2-.5-.4.2-.4.5-.4z"/><path d="m36.9 11.6c.8 0 1.4-.6 1.4-1.4s-.6-1.4-1.4-1.4-1.4.6-1.4 1.4.6 1.4 1.4 1.4zm0-1.8c.2 0 .4.2.4.4s-.2.4-.4.4-.4-.2-.4-.4.1-.4.4-.4z"/><path d="m32 10.2c.8 0 1.4-.6 1.4-1.4s-.6-1.4-1.4-1.4-1.4.6-1.4 1.4.6 1.4 1.4 1.4zm0-1.8c.2 0 .4.2.4.4s-.2.4-.4.4-.4-.2-.4-.4.1-.4.4-.4z"/></svg>