<svg id="Layer_1" enable-background="new 0 0 450 450" viewBox="0 0 450 450" xmlns="http://www.w3.org/2000/svg"><g><g><path d="m334.3 446.7c-50 0-90.8-40.7-90.8-90.8v-32.6c0-2.8 2.2-5 5-5s5 2.2 5 5v32.7c0 44.5 36.2 80.8 80.8 80.8s80.7-36.3 80.7-80.8v-77.2c0-2.8 2.2-5 5-5s5 2.2 5 5v77.2c0 50-40.7 90.7-90.7 90.7zm0-70.4c-11.2 0-20.4-9.1-20.4-20.4v-32.6c0-2.8 2.2-5 5-5s5 2.2 5 5v32.7c0 5.6 4.7 10.4 10.4 10.4 5.6 0 10.4-4.7 10.4-10.4v-77.2c0-2.8 2.2-5 5-5s5 2.2 5 5v77.2c-.1 11.2-9.2 20.3-20.4 20.3zm-15.4-87.2c-2.8 0-5-2.2-5-5v-16.9c0-99.3-80.8-180-180-180h-82.8c-2.8 0-5-2.2-5-5s2.2-5 5-5h82.8c104.8 0 190 85.2 190 190v16.9c0 2.8-2.2 5-5 5zm-70.4 0c-2.8 0-5-2.2-5-5v-16.9c0-60.4-49.2-109.6-109.6-109.6h-82.8c-2.8 0-5-2.2-5-5s2.2-5 5-5h82.8c31.8 0 61.8 12.5 84.5 35.2s35.2 52.7 35.2 84.5v16.9c-.1 2.7-2.3 4.9-5.1 4.9zm171.5-44.5c-2.8 0-5-2.2-5-5v-188.8c0-2.8 2.2-5 5-5s5 2.2 5 5v188.7c0 2.8-2.2 5.1-5 5.1zm-70.4 0c-2.8 0-5-2.2-5-5v-188.8c0-2.8 2.2-5 5-5s5 2.2 5 5v188.7c0 2.8-2.2 5.1-5 5.1z"/></g><g><path d="m265.3 271.8c-2.8 0-5-2.2-5-5-.2-69.5-56.9-126-126.4-126-2.8 0-5-2.2-5-5s2.2-5 5-5c75 0 136.2 61 136.4 136 0 2.7-2.2 5-5 5z"/></g><g><path d="m313.9 444.3c-.6 0-1.3-.1-1.9-.4-2.6-1-3.8-4-2.8-6.5 1.9-4.7 2.9-10.1 2.9-15.7 0-15.5-7.8-28.5-17-28.5-8.1 0-15.3 10.2-16.8 23.7-.3 2.8-2.7 4.7-5.5 4.5-2.8-.3-4.7-2.7-4.5-5.5 2-18.9 13.2-32.7 26.7-32.7 15.1 0 27 16.9 27 38.5 0 6.9-1.3 13.6-3.6 19.5-.6 1.9-2.5 3.1-4.5 3.1z"/></g><g><path d="m250.7 380.3c-1.7 0-3.4-.9-4.3-2.5-1.4-2.4-.6-5.5 1.8-6.8 14.6-8.5 38.4-20.9 69.1-31.3 2.6-.9 5.5.5 6.3 3.1.9 2.6-.5 5.5-3.1 6.3-29.9 10.2-53.1 22.2-67.3 30.5-.8.5-1.6.7-2.5.7zm98.9-39.9c-2.2 0-4.3-1.5-4.9-3.8-.7-2.7 1-5.4 3.6-6.1 23.5-5.9 47.5-9.5 71.4-10.8 2.7-.2 5.1 2 5.3 4.7.1 2.8-2 5.1-4.7 5.3-23.2 1.3-46.6 4.8-69.5 10.5-.4.1-.8.2-1.2.2z"/></g><g><path d="m417.3 284.4h-65c-6.7 0-12.1-5.4-12.1-12.1v-26.2c0-6.7 5.4-12.1 12.1-12.1h65c6.7 0 12.1 5.4 12.1 12.1v26.2c0 6.7-5.5 12.1-12.1 12.1zm-65-40.4c-1.1 0-2.1 1-2.1 2.1v26.2c0 1.1 1 2.1 2.1 2.1h65c1.1 0 2.1-1 2.1-2.1v-26.2c0-1.1-1-2.1-2.1-2.1z"/></g><g><path d="m316.2 328.9h-65c-6.7 0-12.1-5.4-12.1-12.1v-26.2c0-6.7 5.4-12.1 12.1-12.1h65c6.7 0 12.1 5.4 12.1 12.1v26.2c0 6.7-5.5 12.1-12.1 12.1zm-65-40.3c-1.1 0-2.1 1-2.1 2.1v26.2c0 1.1 1 2.1 2.1 2.1h65c1.1 0 2.1-1 2.1-2.1v-26.2c0-1.1-1-2.1-2.1-2.1z"/></g><g><path d="m30.6 178.2c-14.1 0-25.6-11.5-25.6-25.6v-70.3c0-14.1 11.5-25.6 25.6-25.6 14.1 0 25.6 11.5 25.6 25.6v70.3c-.1 14.1-11.5 25.6-25.6 25.6zm0-111.5c-8.6 0-15.6 7-15.6 15.6v70.3c0 8.6 7 15.6 15.6 15.6s15.6-7 15.6-15.6v-70.3c-.1-8.6-7.1-15.6-15.6-15.6z"/></g><g><path d="m420 55.8h-70.3c-14.1 0-25.6-11.5-25.6-25.6s11.5-25.6 25.6-25.6h70.3c14.1 0 25.6 11.5 25.6 25.6-.1 14.2-11.5 25.6-25.6 25.6zm-70.4-41.1c-8.6 0-15.6 7-15.6 15.6s7 15.6 15.6 15.6h70.4c8.6 0 15.6-7 15.6-15.6s-7-15.6-15.6-15.6z"/></g><g><path d="m366.7 176.2c-2.8 0-5-2.2-5-5v-69c0-2.8 2.2-5 5-5s5 2.2 5 5v69c0 2.7-2.2 5-5 5z"/></g><g><path d="m348.9 420.9c-.4 0-.7 0-1.1 0-5-.3-9.1-2.6-11.2-6.3-4.1-7.1.2-17.1 9.8-22.6s20.4-4.3 24.5 2.8c2.1 3.7 2.1 8.4-.2 12.9-1.9 3.8-5.3 7.3-9.6 9.8-3.9 2.2-8.2 3.4-12.2 3.4zm9.6-22.4c-2 0-4.5.6-7.2 2.1-5.1 2.9-7 7.3-6.1 9 .4.7 1.6 1.2 3.1 1.3 2.3.1 5.1-.6 7.7-2.1 2.5-1.5 4.6-3.5 5.7-5.6.7-1.4.9-2.6.5-3.4-.5-.8-1.8-1.3-3.7-1.3z"/></g><g><path d="m374.6 389.8c-5.3 0-10-2.2-12.4-6.3-4.1-7.1.2-17.1 9.8-22.6 4.3-2.5 9-3.7 13.3-3.4 5 .3 9.1 2.6 11.2 6.3s2.1 8.4-.2 12.9c-1.9 3.8-5.3 7.3-9.6 9.8-4 2.1-8.2 3.3-12.1 3.3zm-3.6-11.3c.9 1.6 5.7 2.1 10.8-.8 2.5-1.5 4.6-3.5 5.7-5.6.7-1.4.9-2.6.5-3.4s-1.6-1.2-3.1-1.3c-2.3-.1-5.1.6-7.7 2.1-5.2 2.9-7.2 7.3-6.2 9z"/></g></g></svg>