<?xml version="1.0"?>
<svg xmlns="http://www.w3.org/2000/svg" id="Layer_1" data-name="Layer 1" viewBox="0 0 512 512"><path d="M360.625,278.686a7.025,7.025,0,0,0,1.659-.2c30.735-7.5,60.661-27.079,84.266-55.132,20.439-24.291,34.386-52.892,38.817-79.322a26.809,26.809,0,0,0,20.615-27.055,26.941,26.941,0,0,0-27.255-25.829H298.574V61.167a32.142,32.142,0,1,0-51.934,0V91.148H66.487c-14.523,0-26.75,11.587-27.255,25.829A26.812,26.812,0,0,0,59.86,144.035c3.087,18.421,10.8,37.945,22.237,56.426H71.467a7,7,0,0,0-3.272.811L35.53,218.539H21.849A15.866,15.866,0,0,0,6,234.388v11.4a15.867,15.867,0,0,0,15.849,15.849h.724L39.762,468.075A37.086,37.086,0,0,0,76.5,501.887H223.319a36.434,36.434,0,0,0,16.947-4.193h69.442a7,7,0,0,0,6.88-5.708l7.162-38.126h16.172a18.123,18.123,0,0,0,18.1-18.1V399.112h41.563a1.209,1.209,0,0,1,1.193,1.193v56.351a41.084,41.084,0,0,0,41.038,41.038h37.27a7,7,0,0,0,7-7V464.849a7,7,0,0,0-7-7h-37.27a1.208,1.208,0,0,1-1.192-1.193V400.305a41.085,41.085,0,0,0-41.039-41.038H358.024V326.622a18.122,18.122,0,0,0-18.1-18.1h-14.98V278.686ZM272.607,24.113a18.143,18.143,0,1,1-18.142,18.143A18.163,18.163,0,0,1,272.607,24.113ZM260.64,72.079a32.037,32.037,0,0,0,23.934,0V91.148H260.64Zm-207.417,45.4c.241-6.8,6.192-12.326,13.264-12.326h412.24c7.072,0,13.023,5.53,13.265,12.327A12.8,12.8,0,0,1,479.2,130.746H66.013a12.8,12.8,0,0,1-12.79-13.272Zm20.983,27.272H471C461.484,193,416.7,250.361,359.771,264.686H277l.254-3.051a15.865,15.865,0,0,0,15.812-15.847v-11.4a15.866,15.866,0,0,0-15.848-15.849H264.293l-32.666-17.267a7,7,0,0,0-3.272-.811H195.347V194.6a18.8,18.8,0,0,0-18.781-18.781H123.257a18.8,18.8,0,0,0-18.78,18.781v5.865H98.811C86.343,182.373,77.783,162.963,74.206,144.746Zm107.141,55.715h-62.87V194.6a4.786,4.786,0,0,1,4.78-4.781h53.309a4.787,4.787,0,0,1,4.781,4.781ZM20,245.788v-11.4a1.851,1.851,0,0,1,1.849-1.849H37.267a7,7,0,0,0,3.271-.811L73.2,214.461H226.619l32.666,17.267a7,7,0,0,0,3.272.811h14.657a1.85,1.85,0,0,1,1.848,1.849v11.4a1.85,1.85,0,0,1-1.848,1.849H21.849A1.851,1.851,0,0,1,20,245.788Zm56.5,242.1a23,23,0,0,1-22.791-20.974L36.622,261.637H263.2L246.11,466.913a23,23,0,0,1-22.791,20.974Zm227.4-4.193H255.041a36.408,36.408,0,0,0,5.021-15.619l1.183-14.215h48.26Zm95.687-110.427a27.069,27.069,0,0,1,27.039,27.038v56.351a15.21,15.21,0,0,0,15.192,15.193h30.27v11.845h-30.27a27.068,27.068,0,0,1-27.038-27.038V400.305a15.21,15.21,0,0,0-15.193-15.193H358.024V373.267Zm-55.563-46.645V435.758a4.106,4.106,0,0,1-4.1,4.1H262.411l9.77-117.339h67.741A4.106,4.106,0,0,1,344.024,326.622Zm-33.082-18.1h-37.6l2.484-29.835h35.112Zm-208.2,40.593,11.544,7.192a12.024,12.024,0,0,0,6.38,1.837,12.149,12.149,0,0,0,10.3-5.714L150.189,321.5l8.193,14.189-.022.012a9.1,9.1,0,0,0,.86,16.2l24.185,10.73a13.244,13.244,0,0,0,18.539-10.7l2.8-26.31a9.1,9.1,0,0,0-13.6-8.843l-.022.013-15.848-27.449a16.724,16.724,0,0,0-15.712-8.365L135.794,282.7a12.428,12.428,0,0,0-9.645,5.86L98.866,332.441A12.119,12.119,0,0,0,102.739,349.114Zm57.795-54.177a2.809,2.809,0,0,1,2.621,1.4l19.347,33.51a7,7,0,0,0,7.353,3.382l-1.722,16.18-14.875-6.6a7,7,0,0,0,.749-8.058l-22.469-39.169ZM136.766,298l5.56,9.631-22.249,35.792-8.327-5.188ZM245.472,420.546a12.43,12.43,0,0,0-.237-11.285l-24.285-45.61a12.1,12.1,0,0,0-16.367-5.01l-12.014,6.382a12.106,12.106,0,0,0-5.007,16.373l17.119,32.146-16.385-.028v-.025a9.1,9.1,0,0,0-14.443-7.379l-21.412,15.545a13.244,13.244,0,0,0-.036,21.407l21.358,15.616a9.1,9.1,0,0,0,14.468-7.329v-.025l31.694.054h.03a16.929,16.929,0,0,0,15.087-9.4Zm-35.994-48.652,22.267,41.819-11.121-.02-19.81-37.2Zm10.476,65.484h0l-38.694-.066h-.012a7,7,0,0,0-6.6,4.667l-13.137-9.606,13.168-9.56a7,7,0,0,0,6.6,4.689l45.155.2-3.953,8.109A2.827,2.827,0,0,1,219.954,437.378Zm-85.538-22.384L98,414.6l7.883-14.365.018.01a9.1,9.1,0,0,0,13.405-9.133l-3.371-26.242a13.244,13.244,0,0,0-18.767-10.3L73.222,365.82a9.1,9.1,0,0,0-.509,16.211l.022.012L57.486,409.828a16.72,16.72,0,0,0,1,17.773l13.805,19.431a12.435,12.435,0,0,0,10.017,5.206l51.669.565h.146a12.106,12.106,0,0,0,12.1-11.96l.163-13.6a12.109,12.109,0,0,0-11.967-12.246Zm-64.656,1.57,18.616-33.921a7,7,0,0,0-.922-8.041l14.727-6.919,2.073,16.138a7.008,7.008,0,0,0-7.277,3.541L75.142,426.887l-5.218-7.356A2.828,2.828,0,0,1,69.76,416.564Zm62.484,22.219-47.377-.518,5.352-9.75,42.141.458Z"/></svg>
