<?xml version="1.0" encoding="UTF-8"?>
<svg id="Layer_1" data-name="Layer 1" xmlns="http://www.w3.org/2000/svg" viewBox="0 0 380 380">
  <defs>
    <style>
      .cls-1 {
        fill: #2e2e2e;
      }
    </style>
  </defs>
  <path class="cls-1" d="M375.31,35.79c-3.58-3.58-9.4-3.58-12.98,0l-86.81,86.81-18.12-18.12,86.81-86.81c1.73-1.73,2.69-4.04,2.69-6.49s-.95-4.76-2.69-6.49c-1.73-1.73-4.04-2.69-6.49-2.69s-4.76.95-6.49,2.69l-86.79,86.79-1.41-1.37c-3.57-3.46-9.35-3.42-12.86.1l-45.12,45.12-44.59,14.86s-.12.05-.19.08c-.22.08-.43.16-.63.25-.1.05-.21.09-.31.14-.2.1-.4.21-.6.33l-.28.17c-.2.13-.39.27-.58.41l-.25.18c-.22.18-.44.38-.65.58l-.15.15c-.22.23-.42.45-.61.68l-.16.22c-.14.19-.29.39-.42.6l-.15.25c-.12.21-.24.42-.35.64l-.12.26c-.1.23-.19.46-.28.69-.02.07-.05.14-.08.22l-22,66.01L7.56,267.09c-4.65,1.99-6.81,7.4-4.82,12.05.97,2.25,2.75,4,5.03,4.91,2.28.91,4.77.88,7.02-.09l103.14-44.2,22.31,22.31-.53,1.24-43.67,101.89c-1.99,4.65.17,10.05,4.82,12.05,2.25.97,4.75,1,7.02.09,2.28-.91,4.06-2.65,5.03-4.9l45.02-105.06,66.23-22.09c.24-.08.47-.18.7-.28l.25-.11c.23-.11.45-.23.67-.36l.23-.14c.22-.14.43-.29.65-.46l.15-.11c.29-.23.55-.45.79-.7.24-.24.46-.49.67-.76l.14-.19c.15-.19.3-.41.44-.63l.14-.24c.12-.21.24-.43.36-.66l.11-.24c.11-.24.2-.48.29-.72l.08-.21,14.84-44.53,45.12-45.12c3.52-3.52,3.56-9.29.1-12.87l-1.37-1.41,86.79-86.79c3.58-3.58,3.58-9.4,0-12.98ZM153.61,249.47l-23.08-23.08,16.84-50.51,56.75,56.75-50.51,16.84ZM217.09,219.66l-56.75-56.75,27.18-9.06,38.63,38.63-9.06,27.18ZM236.65,177.02l-33.67-33.67,33.67-33.67,33.67,33.67-33.67,33.67Z"/>
  <path class="cls-1" d="M110.97,269.03c-1.73-1.73-4.04-2.69-6.49-2.69s-4.75.96-6.49,2.69l-38.87,38.87c-1.73,1.73-2.69,4.04-2.69,6.49s.96,4.75,2.69,6.49c1.73,1.73,4.04,2.69,6.49,2.69s4.75-.95,6.49-2.69l38.88-38.87c1.73-1.73,2.69-4.04,2.69-6.49s-.96-4.76-2.69-6.49Z"/>
</svg>