<?xml version="1.0" encoding="UTF-8"?>
<svg id="Layer_1" data-name="Layer 1" xmlns="http://www.w3.org/2000/svg" viewBox="0 0 583.21 427">
  <defs>
    <style>
      .cls-1 {
        fill: #fff;
      }

      .cls-2 {
        fill: #3742ac;
      }
    </style>
  </defs>
  <g>
    <path d="M342.93,290.6h1.48c.82,3.83,2.13,6.61,3.95,8.35,1.82,1.74,3.9,2.61,6.25,2.61s3.91-.6,4.87-1.79c.96-1.19,1.44-2.45,1.44-3.77,0-1.54-.5-2.79-1.51-3.76-.66-.63-2.01-1.46-4.04-2.48l-3.26-1.65c-3.24-1.64-5.53-3.26-6.86-4.86-1.33-1.6-2-3.58-2-5.94,0-2.5.88-4.84,2.65-7.01,1.76-2.17,4.47-3.26,8.11-3.26,1.85,0,3.65.28,5.38.85,1.73.57,2.72.85,2.97.85.56,0,.94-.16,1.16-.49.21-.33.39-.75.52-1.29h1.53v11.16h-1.43c-.67-2.59-1.85-4.81-3.54-6.68-1.69-1.87-3.74-2.8-6.15-2.8-1.7,0-3.04.47-4.02,1.42s-1.48,2.09-1.48,3.44c0,1.62.46,2.83,1.39,3.63.91.82,2.94,2.02,6.1,3.61l3.78,1.9c1.69.85,3.03,1.79,4.03,2.83,1.87,1.93,2.81,4.28,2.81,7.05,0,2.58-1.01,5.02-3.02,7.31-2.01,2.29-5.23,3.44-9.66,3.44-1.02,0-2.05-.1-3.09-.29-1.04-.19-2.07-.49-3.09-.89l-.98-.38c-.23-.07-.45-.12-.66-.16-.21-.04-.39-.06-.54-.06-.53,0-.89.15-1.08.46s-.37.75-.52,1.31h-1.48v-12.69Z"/>
    <path d="M373.23,281.63c2.1-2.18,4.62-3.27,7.58-3.27,1.69,0,3.27.44,4.76,1.33,1.49.88,2.63,2.11,3.43,3.68.6,1.18,1.02,2.72,1.25,4.6.12.88.18,1.56.18,2.03h-13.09c.12,2.05.45,3.83,1,5.33,1,2.82,2.77,4.23,5.29,4.23,1.2,0,2.34-.38,3.41-1.13.65-.45,1.46-1.21,2.43-2.28l1.18.73c-1.59,2.6-3.42,4.41-5.51,5.43-1.35.65-2.91.98-4.66.98-2.52,0-4.89-.99-7.09-2.98-2.21-1.99-3.31-5.16-3.31-9.51,0-3.94,1.05-6.99,3.14-9.17ZM384.12,288.09c-.03-3.02-.27-5.13-.7-6.33s-1.31-1.8-2.61-1.8-2.26.69-2.75,2.08c-.49,1.38-.77,3.4-.84,6.06h6.91Z"/>
    <path d="M391.97,301.33c.98-.12,1.67-.35,2.05-.7.38-.35.59-1.03.63-2.03l.05-1.5v-13.94c0-1.08-.18-1.81-.55-2.2s-1.09-.65-2.18-.78v-1.23h9.71v4.03c1.09-1.42,2.17-2.54,3.24-3.38,1.07-.83,2.31-1.25,3.71-1.25,1.05,0,2,.34,2.85,1.01s1.27,1.66,1.27,2.97c0,1-.3,1.83-.89,2.48-.59.65-1.37.98-2.32.98-1.09,0-2.03-.51-2.82-1.53-.79-1.02-1.35-1.53-1.67-1.53-.69,0-1.38.42-2.07,1.26-.69.84-1.04,2.05-1.04,3.62v9.7c0,1.69.25,2.75.74,3.17.49.42,1.47.7,2.94.83v1.23h-13.64v-1.23Z"/>
    <path d="M426.77,278.96v1.23c-.91.03-1.59.13-2.05.3-.46.17-.69.53-.69,1.08,0,.13.06.38.19.74.13.36.22.62.29.79l3.99,9.84h.17l3.56-8.77c.17-.42.3-.84.41-1.28s.16-.78.16-1.03c0-.72-.24-1.17-.72-1.37-.48-.19-1.18-.3-2.1-.31v-1.23h7.75v1.23c-.68.05-1.24.27-1.68.66s-.86,1.1-1.28,2.12l-8.26,20.32h-1.3l-6.16-15.21c-.43-1.07-.86-2.07-1.26-3.01-.41-.94-.84-1.85-1.29-2.73-.47-.9-.83-1.47-1.1-1.7-.27-.23-.75-.38-1.45-.45v-1.23h12.82Z"/>
    <path d="M438.91,301.33c.9-.15,1.52-.38,1.85-.68.5-.45.75-1.26.75-2.43v-15.06c0-1.04-.18-1.75-.53-2.13-.35-.38-1.04-.66-2.08-.85v-1.23h9.83v19.47c0,1.12.17,1.84.5,2.15.33.32.96.57,1.88.75v1.23h-12.21v-1.23ZM442.32,268.31c.78-.78,1.71-1.16,2.82-1.16s2.01.39,2.79,1.16c.78.78,1.16,1.71,1.16,2.82s-.39,2.04-1.16,2.81c-.78.78-1.71,1.16-2.79,1.16s-2.04-.39-2.82-1.16c-.78-.78-1.16-1.71-1.16-2.81s.39-2.04,1.16-2.82Z"/>
    <path d="M452.48,301.33c.93-.12,1.62-.37,2.06-.76.44-.39.66-1.17.66-2.34v-15.06c0-1.04-.18-1.77-.54-2.17-.36-.4-1.09-.67-2.19-.81v-1.23h9.71v3.68c.82-1.23,1.86-2.26,3.12-3.07,1.26-.81,2.66-1.21,4.19-1.21,2.2,0,3.91.57,5.12,1.7,1.21,1.13,1.81,3.13,1.81,5.98v12.39c0,1.15.2,1.89.59,2.23.39.33,1.05.56,1.96.68v1.23h-12.04v-1.23c.92-.18,1.54-.43,1.88-.75.33-.32.5-1.03.5-2.15v-12.41c0-1.17-.12-2.04-.35-2.63-.4-1.05-1.19-1.58-2.38-1.58-.88,0-1.7.32-2.44.96s-1.31,1.29-1.71,1.94v13.71c0,1.12.17,1.84.5,2.15.33.32.96.57,1.88.75v1.23h-12.34v-1.23Z"/>
    <path d="M481.58,306.22c.61-.78,1.66-1.28,3.17-1.51v-.35c-1-.38-1.73-.78-2.18-1.18-.8-.72-1.2-1.68-1.2-2.88,0-1.43.63-2.66,1.89-3.68s2.49-1.73,3.69-2.13v-.35c-1.74-.7-3.14-1.7-4.2-3-1.07-1.3-1.6-2.88-1.6-4.73,0-2.34.93-4.26,2.8-5.78,1.87-1.52,4.4-2.28,7.58-2.28,1.2,0,2.3.12,3.3.35,1,.23,1.78.48,2.33.73h6.76v2.73h-4.15c.67.65,1.18,1.41,1.54,2.28.36.87.54,1.81.54,2.83,0,3.2-1.53,5.4-4.58,6.58-1.6.63-3.59.95-5.98.95-.52,0-.86,0-1.01-.02s-.4-.03-.71-.03c-.5.08-1.03.35-1.58.8-.57.47-.85,1.03-.85,1.68,0,.52.14.92.43,1.2.28.28.68.46,1.18.53.25.03.78.06,1.6.09.82.02,1.45.04,1.9.04l3.33.05c1.88.03,3.47.31,4.75.83,2.45,1,3.68,2.79,3.68,5.38,0,3.34-1.83,5.63-5.5,6.88-1.94.65-4.37.98-7.31.98-2.4,0-4.47-.23-6.21-.7-2.87-.78-4.3-2.12-4.3-4,0-.73.3-1.49.91-2.26ZM486.86,310.64c1.13.6,2.76.9,4.89.9,1.9,0,3.47-.15,4.7-.45,2.32-.57,3.48-1.62,3.48-3.14,0-.89-.33-1.55-.99-2-.66-.44-1.86-.67-3.59-.67h-8.41c-.53.44-.92.8-1.15,1.11-.42.55-.62,1.14-.62,1.76,0,1.06.56,1.88,1.69,2.49ZM488.65,291c.5,1.5,1.46,2.25,2.88,2.25,1.29,0,2.17-.56,2.65-1.69.48-1.13.73-2.77.73-4.94,0-2.3-.25-3.98-.76-5.03-.51-1.05-1.38-1.58-2.62-1.58-1.35,0-2.25.56-2.7,1.69s-.68,2.77-.68,4.92c0,1.97.17,3.43.5,4.38Z"/>
    <path d="M521.22,292.28c2.22-1.35,5.7-2.72,10.43-4.09v-3.73c0-1.52-.32-2.64-.96-3.37-.64-.73-1.78-1.09-3.42-1.09-.92,0-1.67.17-2.26.51-.59.34-.89.77-.89,1.29,0,.2.03.37.1.5.07.13.17.27.3.43l.3.35c.23.28.42.6.56.94.14.34.21.71.21,1.09,0,.97-.32,1.71-.96,2.24-.64.53-1.39.79-2.24.79-.98,0-1.82-.29-2.51-.87-.69-.58-1.04-1.42-1.04-2.52,0-1.96.93-3.52,2.78-4.67,1.85-1.15,4.13-1.72,6.83-1.72,2.9,0,5.33.56,7.28,1.68,1.93,1.13,2.9,3.22,2.9,6.26v12.41c0,.37.1.68.29.94.19.26.4.39.64.39.2,0,.38-.04.54-.11.16-.07.4-.28.74-.61l.78,1.08c-1,1.17-2.11,1.99-3.33,2.45-.77.3-1.58.45-2.43.45-1.52,0-2.63-.44-3.33-1.33-.4-.5-.69-1.25-.88-2.23-1.42,1.42-3.02,2.42-4.8,3.01-1.08.37-2.15.55-3.2.55-1.4,0-2.71-.45-3.93-1.34s-1.83-2.28-1.83-4.17c0-2.31,1.11-4.14,3.33-5.49ZM530.15,298.88c.4-.3.88-.77,1.43-1.4v-7.5c-1.37.33-2.57.86-3.6,1.58-1.75,1.22-2.63,2.78-2.63,4.67,0,1.12.25,1.97.76,2.55s1.08.87,1.71.87c.83,0,1.61-.25,2.33-.75Z"/>
    <path d="M542.38,301.33c.9-.22,1.54-.5,1.91-.86s.56-1.1.56-2.24v-26.1c0-1.09-.17-1.81-.53-2.15-.35-.34-1-.61-1.95-.83v-1.23h9.71v30.3c0,1.13.18,1.88.55,2.23.37.35,1.02.64,1.95.88v1.23h-12.21v-1.23Z"/>
    <path d="M555.95,301.33c.9-.22,1.54-.5,1.91-.86s.56-1.1.56-2.24v-26.1c0-1.09-.17-1.81-.53-2.15-.35-.34-1-.61-1.95-.83v-1.23h9.71v30.3c0,1.13.18,1.88.55,2.23.37.35,1.02.64,1.95.88v1.23h-12.21v-1.23Z"/>
    <path d="M370.94,343.39c2.19-2.39,4.95-3.58,8.27-3.58s6.16,1.22,8.32,3.65c2.16,2.44,3.24,5.39,3.24,8.86s-1.07,6.36-3.2,8.82-4.92,3.69-8.36,3.69-6.1-1.2-8.28-3.59-3.28-5.37-3.28-8.92,1.1-6.55,3.29-8.93ZM375.73,359.85c.58,2.22,1.74,3.33,3.48,3.33s2.74-.85,3.25-2.55c.52-1.7.78-4.47.78-8.31s-.27-6.58-.81-8.3c-.54-1.71-1.61-2.56-3.19-2.56-1.74,0-2.89,1.11-3.48,3.33-.38,1.49-.58,4-.58,7.53s.18,6.1.55,7.53Z"/>
    <path d="M392.18,362.83c1.05-.08,1.81-.32,2.26-.7s.69-1.18.69-2.4v-16.67h-2.95v-2.25h2.95v-1.9c0-2.39.38-4.35,1.13-5.88,1.42-2.87,4.04-4.3,7.86-4.3,2.04,0,3.76.46,5.17,1.39,1.41.93,2.11,2.15,2.11,3.67,0,.95-.3,1.72-.89,2.3-.59.58-1.38.88-2.36.88-.82,0-1.52-.27-2.1-.8s-.88-1.18-.88-1.93c0-.57.19-1.16.56-1.79s.56-1,.56-1.14c0-.42-.15-.68-.45-.8-.3-.12-.62-.17-.98-.17-.83,0-1.48.24-1.93.73s-.68,1.53-.68,3.13v6.63h4.45v2.25h-4.45v15.74c0,1.77.25,2.85.76,3.25.51.4,1.64.66,3.39.78v1.23h-14.24v-1.23Z"/>
    <path d="M420.85,362.76c1.9-.05,3.13-.41,3.68-1.09.55-.68.83-1.67.83-2.99v-24.27c-1.57-1.75-2.54-2.78-2.9-3.09-.37-.31-.87-.5-1.5-.59v-1.3h10.86l17.62,21.41h.25v-15.05c0-1.73-.32-2.97-.95-3.72-.63-.74-1.89-1.19-3.78-1.34v-1.3h11.01v1.3c-1.6.27-2.67.62-3.22,1.07-.54.45-.81,1.45-.81,3.01v30.2h-1.43l-22.55-27.4h-.35v20.09c0,1.58.22,2.69.65,3.34.68,1.06,2.09,1.63,4.2,1.71v1.3h-11.61v-1.3Z"/>
    <path d="M482.67,329.96c2.19.79,3.4,1.19,3.65,1.19.65,0,1.17-.25,1.56-.75.39-.5.64-1.03.74-1.58h1.43v11.99h-1.3c-1.23-2.6-2.49-4.65-3.77-6.16-2.4-2.77-5.12-4.15-8.15-4.15-3.43,0-5.87,1.48-7.31,4.44-1.44,2.96-2.16,6.94-2.16,11.92,0,3.67.42,6.69,1.27,9.06,1.58,4.44,4.52,6.66,8.82,6.66,2.63,0,5.08-.73,7.35-2.2,1.3-.85,2.83-2.21,4.6-4.08l1.53,1.25c-2,2.24-3.76,3.85-5.28,4.85-2.7,1.78-5.71,2.68-9.01,2.68-5.05,0-9.29-1.5-12.71-4.5-3.79-3.32-5.68-7.79-5.68-13.41s1.81-10.08,5.43-13.54c3.4-3.24,7.57-4.85,12.51-4.85,2.13,0,4.29.4,6.48,1.19Z"/>
    <path d="M508.73,329.42v1.25c-1.23.12-2.08.29-2.54.53s-.69.77-.69,1.6c0,.22.03.47.08.76.05.29.12.6.23.91l6.28,17.94h.11l5.86-15.01c.03-.08-.21-.85-.72-2.29-.51-1.44-.87-2.33-1.07-2.67-.38-.6-.81-1.03-1.26-1.28-.46-.25-1.29-.42-2.49-.5v-1.25h16.02v1.25c-1.47.12-2.45.28-2.94.48-.49.2-.74.65-.74,1.35,0,.17.05.49.16.96s.3,1.13.56,1.97l5.88,16.51h-.21l5.59-16.87c.1-.3.18-.62.25-.96.07-.34.1-.72.1-1.14,0-.95-.36-1.59-1.08-1.9-.43-.2-1.26-.33-2.48-.4v-1.25h9.38v1.25c-.78.12-1.39.32-1.83.6-.75.52-1.33,1.41-1.75,2.68l-10.26,30.95h-1.35l-8.61-24.06h-.35l-9.38,24.06h-1.43l-10.84-30.95c-.47-1.33-.93-2.18-1.4-2.54-.47-.36-1.19-.61-2.18-.74v-1.25h15.09Z"/>
  </g>
  <g>
    <path class="cls-2" d="M194.48,165.57c-1.39,0-2.63-.17-3.72-.46.62,3.47.8,7,.8,9.91,0,4.64-.4,8.46-1.07,11.6,1.95-2.2,4.81-4.03,9.12-4.03,1.76,0,3.35.38,4.77,1.05v-23.28c-2.26,3.27-5.73,5.21-9.9,5.21ZM116.43,4.27C107.23,1.72,98.85.53,91.94.01c-3.51-.27-5.72,3.65-3.75,6.57,1.98,2.93,3.93,6.37,5.55,10.32,2.02-.19,3.7-.31,5.13-.31,8.5,0,16.51,2.63,22.72,7.42,3.45-3.62,10.11-6.67,22.62-7.03-11.27-7.37-20.41-10.66-27.78-12.71ZM172.05,40.37c-1.48,1.23-3.05,1.88-3.95,2.26-.15.06-.32.14-.48.2-.05.29-.1.76-.1,1.46v36.77c0,3.21.23,4.66.41,5.29.27.04.69.08,1.32.08,5.88,0,6.37-1.6,7.67-5.89.92-3.05,3.08-10.18,10.83-10.18,1.51,0,2.93.25,4.24.73v-8.11c-7.09-8.82-13.72-16.28-19.94-22.61ZM295.15,262.63c-.83-13.01-3.11-25.04-6.93-37.14-.27-.05-.55-.11-.81-.16-3.75,1.43-8.3,2.16-13.56,2.16-11.83,0-18.57-4.12-22.78-10.19-3.94,9.13-18.49,9.13-26.86,9.13-2.85,0-8.77,0-14.18-1.25-3.07-.71-5.48-1.73-7.36-2.91-2.31,2.53-5.04,4.16-8.19,4.16-1.09,0-2.23-.18-3.94-.46-.56-.09-1.17-.19-1.83-.29l-.68-.07c-2.25-.22-4.81-.47-7.83-.47h-45.84c-13.43,0-14.48-9.22-14.48-12.05,0-7.12,5.04-9.56,6.93-10.47.28-.14.65-.32.82-.42.11-.2.49-1.05.63-3.3,0,0,.53-8.29.61-9.59-5.9,3.61-13.13,5.64-21.04,5.64-1.56,0-3.08-.11-4.49-.23v1.25c.08,3.18.59,4.34.73,4.59.17.1.51.26.77.38,1.91.9,6.98,3.3,6.98,10.5,0,2.59-.7,5.36-2.83,7.81.88,5.64-3.05,11.51-6.79,18.11-3.58,6.3-32.02,57.71-19.57,94.61,2.45,7.25,8.93,15.58,21.9,32.25,11.14,14.31,21.58,25.25,29.19,32.69-12.98-1.76-52.03-8.74-77.43-41.22-35.62-45.56-27.15-119.3-.73-143.23-.01-.27-.02-.53-.02-.78,0-7.32,5.41-9.91,7.45-10.88.2-.1.44-.22.64-.32.03-.2.06-.49.06-.9v-45.8c-.36-.16-.81-.34-1.15-.48-2.76-1.12-9.23-3.74-9.23-12,0-7.63,6.18-12.75,15.37-12.75,1.54,0,3.01.06,4.43.12,1.33.06,2.58.11,3.82.11,10.21,0,17.72-.66,23.21-1.15,3.08-.28,5.52-.49,7.47-.49,6.29,0,12.43,1.36,17.78,3.89,2.74-1.54,6.38-2.32,10.9-2.32.85,0,1.67.03,2.44.04.56.02,1.08.03,1.54.03h32.13c10,0,13.41-1.1,15.05-1.62,1-.33,2.24-.73,3.8-.73,4.42,0,7.75,2.12,10.19,5.19,3-2.12,7.59-3.66,14.63-3.66,1.78,0,3.43.11,5.03.22.74.05,1.48.1,2.24.14h.19s.19.03.19.03c2.24.24,4.25.43,6.07.43,2.34,0,4.72-.11,7.19-.26-2.6-4.15-5.28-8.43-8.05-12.85-.25-.39-.49-.78-.74-1.17-11.29-1.22-20.18-5.26-26.5-12.05-.94-1.01-1.81-2.08-2.63-3.2-2.86,8.21-8.39,15.64-15.52,15.64-2.11,0-3.78-.36-5.25-.67-.4-.09-.82-.17-1.27-.26l-.15-.03-.16-.03c-1.34-.31-3.14-.63-6.31-.63h-35.96c-13.43,0-14.88-8.45-14.88-12.09,0-7.54,5.29-9.95,7.28-10.86.24-.11.55-.25.73-.35.13-.31.45-1.29.51-3.52.15-6.27.19-11.87.19-17.21-6.56,9.45-17.92,14.31-29.19,14.31-1.32,0-2.61-.08-3.83-.18v1.08c.08,3.02.53,4.21.68,4.53.15.09.41.22.61.32,1.84.9,6.7,3.3,6.7,10.38,0,12.93-16.83,14.86-26.87,14.86-3.18,0-6.51-.17-9.71-.63-1.97,2.93-3.83,5.67-5.49,8.18C26.8,174.17-20.25,279.04,9.36,347.12c22.11,50.85,86.09,79.11,139.87,79.85,13.17.18,71.89.99,113.08-44.56,37.87-41.89,34.38-95.35,32.84-119.78ZM194.48,165.57c-1.39,0-2.63-.17-3.72-.46.62,3.47.8,7,.8,9.91,0,4.64-.4,8.46-1.07,11.6,1.95-2.2,4.81-4.03,9.12-4.03,1.76,0,3.35.38,4.77,1.05v-23.28c-2.26,3.27-5.73,5.21-9.9,5.21Z"/>
    <path class="cls-2" d="M493.85,26.21c-.28-1.3,1.35-2.12,2.22-1.11,2.42,2.8,5.26,6.28,8.26,10.36,10.32,14.04,17.48,23.77,18.16,36.97.23,4.41.82,15.78-7,23.87-9.05,9.36-26.62,11.5-35.02,3.37-7.56-7.3-5.19-20.45-4.67-23.35,3.04-16.88,15.87-20.5,18.48-36.78.8-4.97.39-9.53-.42-13.34Z"/>
    <path class="cls-2" d="M20.74,16.87c-.28-1.3,1.35-2.12,2.22-1.11,2.42,2.8,5.26,6.28,8.26,10.36,10.32,14.04,17.48,23.77,18.16,36.97.23,4.41.82,15.78-7,23.87-9.05,9.36-26.62,11.5-35.02,3.37-7.56-7.3-5.19-20.45-4.67-23.35,3.04-16.88,15.87-20.5,18.48-36.78.8-4.97.39-9.53-.42-13.34Z"/>
  </g>
  <path class="cls-1" d="M88.3,77.21c.13-.28.26-.56.39-.85-.21.19-.34.47-.39.85Z"/>
  <path d="M373.37,100.14c0,7.75-14.4,7.4-19.03,7.4-4.31,0-18.71.46-18.71-6.94,0-4.04,4.73-4.74,5.46-8.44.42-1.96,2.53-21.85-1.15-21.85-3.26,0-6.63,10.17-9.15,16.07-2.31,5.32-6.1,18.5-9.46,18.04-1.69-.23-2.53,0-8.84-15.61l-6.09-15.03c-.63-1.51-1.79-4.98-3.68-4.98-3.26,0-2.21,15.27-2.21,19.08,0,12.38,6.73,6.59,6.73,12.84,0,6.59-11.25,6.82-15.35,6.82-3.68,0-13.25-.35-13.25-6.36,0-6.59,6.31-1.15,7.15-10.64.84-9.71,1.79-20.46,1.79-37.23,0-6.94-.42-10.52-1.58-13.18-.95-2.19-5.87-3.07-6.86-6.67-2.01,2.67-7.08,1.81-7.08,10.25v31.22c0,5.21.11,32.96-36.27,32.96-4.82,0-9.01-.47-12.66-1.32-12.9-2.98-19.02-10.53-21.9-17.9v-.03c-1.61-4.17-2.18-8.28-2.34-11.44h0c-.13-2.48,0-4.37.07-5.29h0c.02-.29.03-.48.03-.56v-26.71c.42-7.29-6.73-7.29-6.73-12.61,0-1.62-1.16-8.09,20.5-8.09,17.14,0,20.61,3.47,20.61,7.98,0,8.32-7.67.57-8.2,14.68v21.28c0,13.76,4.73,22.55,15.88,22.55,16.61,0,15.87-15.15,15.87-16.42v-28.8c0-12.37-9.04-7.63-9.04-14.33,0-7.17,12.2-6.94,16.51-6.94,3.69,0,13.82,0,15.36,5.28,2.48-4.16,10.41-5.28,17.39-5.28,12.31,0,12.1,2.31,15.25,8.21,3.68,6.82,10.2,25.78,14.83,26.94,3.25.81,7.57-13.18,11.35-20.81,5.36-10.87,5.47-14.34,19.35-14.34,4.62,0,15.14.34,15.14,7.63,0,4.62-4.73,5.55-5.79,9.48-.84,3.24-1.57,16.88-1.57,22.09,0,1.73.63,14.45,1.05,25.21.31,8.44,6.62,6.59,6.62,11.79Z"/>
  <path class="cls-1" d="M447.88,63.37c-1.05-.58-2.21-1.04-2.21-2.55s.95-2.19,1.9-3.12c3.78-3.35,5.78-9.02,5.78-14.34,0-8.9-4.94-18.96-24.18-18.96-2.42,0-4.94.23-7.36.35-2.42.23-4.84.46-7.36.46-3.89,0-7.78-.23-11.67-.46-3.89-.12-7.78-.35-11.67-.35-3.26,0-7.58,2.08-7.58,6.48,0,7.97,9.05,0,8.42,17.46l-1.16,33.3c-.63,19.19-7.47,11.91-7.47,19.08,0,4.05,3.68,6.13,6.94,6.13,3.68,0,7.26-.12,10.83-.35,3.58-.11,7.26-.23,10.83-.23,3.26,0,6.42.12,9.57.23,3.15.23,6.41.35,9.99.35,21.13,0,28.18-14.23,28.18-25.79,0-9.71-7.47-15.84-11.78-17.69ZM420.44,36.43c5.78,0,7.36,6.47,7.36,11.68,0,6.35-1.47,11.21-7.78,11.21-3.26,0-3.05-2.2-3.05-6.71v-9.36c0-3.35-.42-6.82,3.47-6.82ZM422.23,94.59c-3.26,0-5.26-.35-5.26-13.76v-5.78c.11-2.43.84-4.28,4.1-4.28,7.36,0,9.25,6.24,9.25,13.3,0,6.01-2.1,10.52-8.09,10.52Z"/>
  <path d="M447.88,63.37c-1.05-.58-2.21-1.04-2.21-2.55s.95-2.19,1.9-3.12c3.78-3.35,5.78-9.02,5.78-14.34,0-8.9-4.94-18.96-24.18-18.96-2.42,0-4.94.23-7.36.35-2.42.23-4.84.46-7.36.46-3.89,0-7.78-.23-11.67-.46-3.89-.12-7.78-.35-11.67-.35-3.26,0-7.58,2.08-7.58,6.48,0,7.97,9.05,0,8.42,17.46l-1.16,33.3c-.63,19.19-7.47,11.91-7.47,19.08,0,4.05,3.68,6.13,6.94,6.13,3.68,0,7.26-.12,10.83-.35,3.58-.11,7.26-.23,10.83-.23,3.26,0,6.42.12,9.57.23,3.15.23,6.41.35,9.99.35,21.13,0,28.18-14.23,28.18-25.79,0-9.71-7.47-15.84-11.78-17.69ZM420.44,36.43c5.78,0,7.36,6.47,7.36,11.68,0,6.35-1.47,11.21-7.78,11.21-3.26,0-3.05-2.2-3.05-6.71v-9.36c0-3.35-.42-6.82,3.47-6.82ZM422.23,94.59c-3.26,0-5.26-.35-5.26-13.76v-5.78c.11-2.43.84-4.28,4.1-4.28,7.36,0,9.25,6.24,9.25,13.3,0,6.01-2.1,10.52-8.09,10.52Z"/>
  <path d="M569.82,134.14c-2.12,0-3.01.35-4.57.82-1.68.35-3.91.82-8.7.82h-27.45c-4.46,0-7.47-.47-9.59-.82-2.12-.47-3.35-.82-4.13-.82-5.08,0-11.23,8.33-13.49,16.77-1.9-7.64-6.19-11.84-9.72-11.84-1.89,0-2.56.82-5.02.82-2.9,0-9.92-5.75-20.86-5.75-13.6,0-27.03,7.07-35.29,18.17.11-.73.16-1.47.16-2.19,0-5.17-2.68-16.69-9.04-16.69-1.78,0-3.9,2.35-18.85,2.35h-32.13c-2.56,0-6.64-.37-9.72.57-2.41.74-4.22,2.27-4.22,5.42,0,6.94,5.86,1.7,8.29,10.05v.02c.49,1.69.84,3.94.97,6.97,1.11,21.26,1,19.15-.34,40.53-.78,12.46-8.36,7.29-8.36,13.75,0,1.53.11,5.05,7.47,5.05h45.85c3.79,0,6.92.35,9.37.59,2.34.35,4.13.7,4.91.7,3.05,0,6.82-6.68,8.91-13.46,7.79,8.47,18.88,13.81,31.13,13.81,13.17,0,20.97-6.81,24.77-6.81,5.57,0,10.71-10.81,10.71-15.98,0-2.93-1.57-6.93-4.8-6.93-3.46,0-5.58,8.11-19.75,8.11-15.61,0-24.43-14.81-24.43-32.19,0-6.47,3.57-14.92,12.16-14.92,19.86,0,16.96,20.79,28.45,20.79,5.52,0,9.07-3.98,10.07-9.21,1.19,1.77,3,2.98,5.33,2.98,9.03,0,11.49-13.86,16.51-13.86,1.56,0,3.9-.12,3.45,12.22l-.89,25.96c-.11,2.94-.55,9.99-1.67,12.46-2.23,4.46-9.15,1.99-9.15,8.22,0,9.05,20.86,8.81,26.55,8.81,20.86,0,22.98-5.17,22.98-8.81,0-8.22-10.26-1.53-10.26-15.51v-36.06c0-.94-.45-7.29,3.9-7.29,5.69,0,5.58,13.86,15.29,13.86,5.69,0,8.59-3.87,8.59-9.75,0-12.69-9.04-21.73-13.39-21.73ZM425.75,192.35c-3.02,4.71-3.85,13.81-20.8,13.81-11.72,0-12.83.82-12.83-16.33,0-3.76-.11-8.23,4.57-8.23,11.27,0,4.35,12.34,11.27,12.34s7.47-14.1,7.47-18.92-.44-17.85-6.91-17.85c-7.92,0-1.57,13.04-10.05,13.04-6.8,0-7.13-.24-7.13-7.05,0-13.51-1.23-15.86,11.15-15.86,21.2,0,14.06,11.27,22.87,11.27.73,0,1.38-.13,1.95-.37-2.86,5.54-4.52,11.79-4.52,18.47,0,5.52,1.06,10.8,2.96,15.68Z"/>
  <path d="M126.23,43.51c-1.26-5.49-4.11-9.89-7.91-13.14-5.24-4.48-12.28-6.78-19.45-6.78-.78,0-1.72.05-2.82.14-5.07.38-13.55,1.48-26.09,1.48-2.63,0-5.15-.23-7.78-.23-3.26,0-7.89,1.04-7.89,5.66,0,7.29,9.78,3.47,9.78,12.15v45.21c0,9.48-7.67,5.55-7.67,11.91,0,5.53,8.41,7.05,14.62,7.47,2.24.15,4.19.16,5.35.16,4.73,0,19.87-.35,19.87-7.86,0-6.71-7.67-.7-7.99-15.15v-6.71c0-.22.01-.43.05-.61.05-.38.18-.66.39-.85.27-.27.67-.39,1.25-.39,2.84,0,5.99.58,9.14.58,14.62,0,27.87-9.25,27.87-26.48,0-2.34-.25-4.52-.72-6.56ZM93.77,63.34c-.25.02-.51.03-.78.03-5.68,0-4.74-2.66-4.74-5.09v-17.34c0-2.32-.1-3.7,4-3.7,2.3,0,4.2.64,5.72,1.75,3.16,2.3,4.69,6.63,4.69,11.54,0,6.79-2.52,12.39-8.89,12.81Z"/>
  <path d="M194.27,87.3c0,.76-.04,1.54-.13,2.33.01.01,0,.02,0,.02-.87,8.56-6.17,18.24-10.6,18.24-1.89,0-3.36-.46-5.25-.81-2-.46-4.31-.81-7.89-.81h-35.12c-3.36,0-8.72.23-8.72-5.09,0-7.17,8.2-1.15,8.51-14.57.21-8.44.21-15.84.21-22.66s-.52-13.42-.73-19.89c-.07-3.27-1.16-4.87-2.59-5.79-2.8-1.83-6.87-1.06-6.87-5.43,0-1.58.58-2.88,1.55-3.95,4.22-4.65,15.91-4.95,20.1-4.95,2.82,0,5.28.07,7.43.2,13.86.86,14.65,4.26,14.65,7.66,0,2.01-.74,2.96-1.79,3.6-2.44,1.49-6.51,1.28-6.51,8.89v36.77c0,8.33,1.26,12.37,8.73,12.37,17.87,0,11.77-16.07,18.5-16.07,1.86,0,3.27.86,4.29,2.17h0c1.57,2.03,2.23,5.11,2.23,7.77Z"/>
  <path d="M204.38,193.73c-.79-2.24-2.38-4.14-4.77-4.14-9.14,0-2.67,16.57-25.54,16.57-11.71,0-12.83.82-12.83-16.33,0-3.76-.11-8.23,4.57-8.23,11.27,0,4.36,12.34,11.27,12.34s7.47-14.1,7.47-18.92-.44-17.85-6.91-17.85c-7.92,0-1.56,13.04-10.04,13.04-6.81,0-7.14-.24-7.14-7.05,0-13.51-1.23-15.86,11.16-15.86,21.19,0,14.05,11.27,22.86,11.27,3.92,0,5.48-3.71,5.75-7.28.04-.39.05-.79.05-1.17,0-3.24-1.05-8.98-3.41-12.81-1.39-2.28-3.25-3.88-5.62-3.88-1.79,0-3.91,2.35-18.85,2.35h-32.13c-4.1,0-12.02-.92-13.64,4.03-5.34-3.75-12.12-5.67-19.02-5.67-4.68,0-14.5,1.64-30.68,1.64-2.78,0-5.46-.23-8.25-.23-3.46,0-8.37,1.06-8.37,5.75,0,7.41,10.38,3.53,10.38,12.34v45.94c0,2.82-.7,4.48-1.7,5.57-2.38,2.62-6.45,1.97-6.45,6.53,0,7.64,16.51,7.75,21.2,7.75s20.19-.33,21.04-7.36c.03-.21.04-.42.04-.63,0-6.81-8.14-.7-8.48-15.39v-6.81c0-1.29.45-1.88,1.79-1.88,3.01,0,6.36.59,9.7.59,12.75,0,24.51-6.36,28.3-18.35.47,10.62.17,12.88-.88,29.74-.78,12.46-8.37,7.29-8.37,13.75,0,1.53.11,5.05,7.48,5.05h45.84c3.8,0,6.92.35,9.38.59,2.34.35,4.12.7,4.9.7,1.04,0,2.17-.78,3.29-2.08,3.67-4.27,7.2-14.12,7.2-20.24,0-1.08-.2-2.27-.59-3.38ZM101.36,174.55c-6.02,0-5.02-2.7-5.02-5.17v-17.62c0-2.35-.11-3.76,4.24-3.76,7.48,0,11.05,6.11,11.05,13.51s-2.9,13.04-10.27,13.04Z"/>
  <path d="M351.8,135.4c-.73-.51-1.48-.79-2.23-.79-1.56,0-23.99,1.17-26.22,1.17-9.26,0-29.34-1.17-32.24-1.17-3.57,0-8.48,1.88-8.48,6.34,0,6.46,7.26,2.12,8.59,12.22.56,4.58.45,12.1.34,16.92v16.33c0,3.88-.34,12.22-1.45,15.51-.96,2.55-2.54,3.54-4.07,4.27-1.36-.87-2.57-2.54-3.04-6.39-1.56-12.69-5.02-18.09-12.83-21.14-1.34-.59-2.79-1.06-2.79-2.82,0-1.41.78-1.77,1.79-2.35,6.25-3.18,9.48-9.99,9.48-17.04,0-15.63-14.61-21.5-27.22-21.5-3.37,0-6.85.21-10.23.33-.2.01-.39.01-.59.02-3.68.24-7.25.47-10.82.47-2.23,0-4.57-.23-6.81-.47-2.34-.11-4.57-.35-6.91-.35-3.13,0-8.34.4-11.18,2.88-1.21,1.04-1.99,2.47-1.99,4.4,0,3.63,2.1,3.59,4.21,4.87,2.13,1.31,4.27,3.96,4.27,13.11v33.48c0,15.28-8.36,11.05-8.36,17.16,0,2.58,1.43,4.38,3.58,5.64,4.99,2.93,13.87,2.93,17.61,2.93,18.07,0,20.86-3.17,20.86-7.4,0-5.64-5.69-3.99-6.58-9.4-.56-3.29-.78-7.99-.78-11.39,0-7.41.89-7.76,3.35-7.76,6.13,0,8.03,5.29,9.26,10.69,3.45,15.51,5.69,26.32,23.53,26.32,5.22,0,9.15-.81,11.97-2.08.33-.14.65-.3.95-.46,3.1.98,8.02,1.48,15.72,1.48,27.11,0,26.11-5.17,26.11-7.87,0-8.93-11.27.71-10.83-16.68.12-12.1-.55-13.04,4.35-13.04,11.94,0,4.58,13.27,11.72,13.27,7.58,0,8.14-14.21,8.14-19.73,0-4.59-.44-17.39-6.8-17.39-7.81,0-2.35,10.81-10.93,10.81-6.48,0-6.59-2-6.59-4.12,0-17.03,2.9-16.44,9.71-16.44,21.42,0,17.4,12.1,25.1,12.1,3.97,0,5.78-3.6,6-7.34.01-.26.02-.51.02-.77,0-6.62-3.14-14.37-6.69-16.83ZM240.17,171.03c-3.69,0-3.13-2.59-2.91-5.64l.45-11.16c.22-3.64.11-6.35,4.24-6.35,6.47,0,7.81,5.88,7.81,11.63,0,7.29-2.34,11.52-9.59,11.52Z"/>
</svg>