<svg id="Layer_3" height="512" viewBox="0 0 64 64" width="512" xmlns="http://www.w3.org/2000/svg" data-name="Layer 3"><path d="m55 1h-2v32h-4v-32h-2v14h-23v-4a9.01 9.01 0 0 0 -9-9h-4a1 1 0 0 0 -1-1h-4a1 1 0 0 0 -1 1h-4v2h4v4h-4v2h4a1 1 0 0 0 1 1h4a1 1 0 0 0 1-1h4a1 1 0 0 1 1 1v4h-15v2h15v4h-15v2h15v4h-15v2h26a7.008 7.008 0 0 1 7 7v4a3 3 0 0 0 3 3h4v4h-4a7.008 7.008 0 0 1 -7-7v-4a3 3 0 0 0 -3-3h-26v2h15v18a9.01 9.01 0 0 0 9 9h28a1 1 0 0 0 1 1h4a1 1 0 0 0 1-1h4v-2h-4v-4h4v-2h-4a1 1 0 0 0 -1-1h-4a1 1 0 0 0 -1 1h-28a1 1 0 0 1 -1-1v-18h3a1 1 0 0 1 1 1v4a9.01 9.01 0 0 0 9 9h4a1 1 0 0 0 1 1h4a1 1 0 0 0 1-1h8a1 1 0 0 0 1 1h4a1 1 0 0 0 1-1h2v-2h-2v-4h2v-2h-2a1 1 0 0 0 -1-1h-4a1 1 0 0 0 -1 1v-2a1 1 0 0 0 1-1v-4a1 1 0 0 0 -1-1v-10h8v-2h-8v-4h8v-2h-8zm-46 8h-2v-6h2zm46 46h2v6h-2zm-30 1h28v4h-28a7.008 7.008 0 0 1 -7-7v-18h4v18a3 3 0 0 0 3 3zm32-14h2v6h-2zm-3-5h-6v-2h6zm-7-20v4h-23v-4zm-32-9h-4v-4h4a7.008 7.008 0 0 1 7 7v16h-4v-16a3 3 0 0 0 -3-3zm30 40h-2v-6h2zm-3-8a1 1 0 0 0 -1 1h-4a1 1 0 0 1 -1-1v-4a9.01 9.01 0 0 0 -9-9h-3v-4h23v10a1 1 0 0 0 -1 1v4a1 1 0 0 0 1 1v2a1 1 0 0 0 -1-1zm12 3h1v4h-8v-4h1a1 1 0 0 0 1-1v-3h4v3a1 1 0 0 0 1 1z"/></svg>