<svg id="Capa_1" enable-background="new 0 0 511.222 511.222" height="512" viewBox="0 0 511.222 511.222" width="512" xmlns="http://www.w3.org/2000/svg"><path d="m475.219 136.78h-6.138v-12.349c0-13.664-11.115-24.779-24.778-24.779h-35.676v-46.867c.001-29.106-23.679-52.785-52.784-52.785h-200.463c-29.105 0-52.785 23.679-52.785 52.785v46.867h-35.676c-13.663 0-24.778 11.116-24.778 24.779v12.349h-6.138c-9.33 0-16.921 7.59-16.921 16.92v23.574c0 8.315 6.034 15.232 13.949 16.642l4.758 94.5c-1.456.913-2.816 1.989-4.012 3.255-3.857 4.084-5.886 9.643-5.565 15.25l3.776 66.1c.423 7.405 4.753 13.709 10.914 16.966l4.332 86.049c.992 19.729 17.245 35.185 37 35.185h83.722c19.754 0 36.007-15.455 37-35.185l4.331-86.048c6.161-3.257 10.491-9.561 10.914-16.965l.213-3.729h70.394l.213 3.729c.423 7.405 4.753 13.709 10.914 16.967l4.331 86.048c.993 19.729 17.246 35.184 37 35.184h83.723c19.754 0 36.007-15.455 37-35.185l4.331-86.047c6.161-3.257 10.491-9.561 10.914-16.966l3.777-66.102c.319-5.608-1.709-11.167-5.566-15.251-1.195-1.265-2.555-2.341-4.012-3.254l4.758-94.5c7.916-1.411 13.949-8.328 13.949-16.642v-23.574c0-9.33-7.59-16.921-16.921-16.921zm1.921 16.921v23.574c0 1.059-.861 1.92-1.921 1.92h-180.183c-1.06 0-1.921-.861-1.921-1.92v-23.574c0-1.059.861-1.92 1.921-1.92h180.184c1.059-.001 1.92.861 1.92 1.92zm-34.145 131.545c-4.143 0-7.5 3.358-7.5 7.5s3.357 7.5 7.5 7.5h19.541c1.531 0 2.953.613 4.004 1.726 1.052 1.113 1.583 2.568 1.495 4.096l-3.777 66.102c-.166 2.912-2.581 5.193-5.498 5.193h-147.264c-2.917 0-5.332-2.281-5.499-5.194l-3.776-66.101c-.088-1.528.443-2.983 1.495-4.096 1.051-1.113 2.473-1.726 4.004-1.726h103.313c4.143 0 7.5-3.358 7.5-7.5s-3.357-7.5-7.5-7.5h-3.068v-46.788c0-8.372-6.812-15.184-15.184-15.184h-15.307c-8.372 0-15.184 6.812-15.184 15.184v46.788h-50.61l-4.584-91.05h156.062l-4.584 91.05zm-65.704 107.116h15.674v59.96c0 .101-.082.183-.184.183h-15.307c-.102 0-.184-.082-.184-.183v-59.96zm15.674-107.116h-15.674v-46.788c0-.101.082-.184.184-.184h15.307c.102 0 .184.083.184.184v46.788zm61.117-160.815v12.349h-137.909v-12.349c0-5.392 4.387-9.779 9.779-9.779h118.352c5.391 0 9.778 4.387 9.778 9.779zm-336.488-71.646c0-20.835 16.951-37.785 37.786-37.785h200.463c20.835 0 37.785 16.95 37.785 37.785v46.867h-17v-46.867c0-11.461-9.324-20.785-20.785-20.785h-107.37c-4.143 0-7.5 3.358-7.5 7.5s3.357 7.5 7.5 7.5h107.369c3.189 0 5.785 2.595 5.785 5.785v46.867h-35.676c-13.663 0-24.779 11.116-24.779 24.779v12.349h-6.137c-9.33 0-16.921 7.59-16.921 16.92v23.574c0 8.315 6.034 15.232 13.949 16.642l4.758 94.5c-1.456.913-2.816 1.989-4.012 3.254-3.857 4.084-5.886 9.643-5.565 15.251l.652 11.41h-64.571l.652-11.411c.319-5.608-1.709-11.167-5.566-15.251-1.195-1.265-2.555-2.341-4.012-3.254l4.758-94.5c7.916-1.411 13.949-8.328 13.949-16.642v-23.574c0-9.33-7.591-16.92-16.921-16.92h-6.137v-12.349c0-13.664-11.116-24.779-24.779-24.779h-35.676v-46.866c0-3.189 2.595-5.785 5.785-5.785h61.132c4.143 0 7.5-3.358 7.5-7.5s-3.357-7.5-7.5-7.5h-61.13c-11.461 0-20.785 9.324-20.785 20.785v46.867h-17v-46.867zm-65.131 324.577c-2.917 0-5.332-2.281-5.499-5.193l-3.776-66.102c-.087-1.528.443-2.982 1.495-4.095 1.051-1.113 2.473-1.726 4.004-1.726h154.816c1.531 0 2.953.613 4.004 1.726 1.052 1.113 1.583 2.568 1.495 4.096l-3.777 66.102c-.166 2.912-2.581 5.192-5.498 5.192zm147.079-92.116h-50.61v-46.788c0-8.372-6.812-15.183-15.184-15.183h-15.307c-8.372 0-15.184 6.811-15.184 15.183v46.788h-50.61l-4.584-91.05h156.062zm-65.611 0h-15.674v-46.788c0-.101.082-.183.184-.183h15.307c.102 0 .184.082.184.183v46.788zm-76.791-160.815c0-5.392 4.387-9.779 9.778-9.779h118.352c5.393 0 9.779 4.387 9.779 9.779v12.349h-137.909zm-23.058 29.27c0-1.059.861-1.92 1.921-1.92h180.184c1.06 0 1.921.861 1.921 1.92v23.574c0 1.059-.861 1.92-1.921 1.92h-180.184c-1.06 0-1.921-.861-1.921-1.92zm133.874 342.521h-83.722c-11.757 0-21.429-9.197-22.02-20.938l-4.175-82.922h45.218v14.09c0 4.142 3.357 7.5 7.5 7.5s7.5-3.358 7.5-7.5v-14.09h15.674v59.96c0 .101-.082.183-.184.183h-15.307c-.102 0-.184-.082-.184-.183v-13.907c0-4.142-3.357-7.5-7.5-7.5s-7.5 3.358-7.5 7.5v13.907c0 8.372 6.812 15.183 15.184 15.183h15.307c8.372 0 15.184-6.811 15.184-15.183v-59.96h45.218l-4.174 82.921c-.591 11.742-10.263 20.939-22.019 20.939zm53.315-141.928 1.198-20.961h66.285l1.198 20.961zm205.718 141.928h-83.723c-11.756 0-21.428-9.197-22.02-20.938l-4.174-82.921h45.218v59.96c0 8.372 6.812 15.183 15.184 15.183h15.307c8.372 0 15.184-6.811 15.184-15.183v-59.96h45.218l-4.174 82.92c-.592 11.741-10.264 20.939-22.02 20.939z"/></svg>