<?xml version="1.0" encoding="UTF-8"?>
<svg id="Layer_1" data-name="Layer 1" xmlns="http://www.w3.org/2000/svg" viewBox="0 0 495.6 495.6">
  <defs>
    <style>
      .cls-1 {
        fill: #0a3d62;
        fill-rule: evenodd;
      }
    </style>
  </defs>
  <path class="cls-1" d="M247.8,0c46.15.53,87.85,11.87,125.09,34.03,36.79,21.72,67.4,52.51,88.89,89.43,22.02,37.46,33.3,79.41,33.82,125.84-1.31,63.53-21.35,117.8-60.12,162.79-38.77,44.99-88.43,72.83-139.83,83.5v-178.13h48.6l10.99-70h-73.59v-45.85c-.41-9.5,2.6-18.84,8.47-26.32,5.89-7.5,16.25-11.44,31.09-11.83h44.44v-61.32c-.64-.21-6.69-1.02-18.15-2.43-13-1.52-26.07-2.33-39.16-2.43-29.62.14-53.05,8.49-70.28,25.07-17.23,16.57-26.04,40.54-26.41,71.92v53.2h-56v70h56v178.13c-63.11-10.67-112.77-38.51-151.54-83.5S1.31,312.84,0,249.31c.52-46.44,11.8-88.38,33.82-125.84,21.49-36.92,52.1-67.72,88.89-89.43C159.95,11.87,201.65.53,247.8,0h0Z"/>
</svg>