<?xml version="1.0" encoding="UTF-8"?>
<svg id="Layer_1" data-name="Layer 1" xmlns="http://www.w3.org/2000/svg" viewBox="0 0 419 534.08">
  <defs>
    <style>
      .cls-1 {
        fill: #2e2e2e;
      }
    </style>
  </defs>
  <path class="cls-1" d="M406.78,355.93h-50.14c-6.74,0-12.22,5.48-12.22,12.22v8.33h-63.51v-29.7c0-4.7-3.41-8.11-8.11-8.11h-9.97v-25.7h55.18c4.7,0,8.11-3.41,8.11-8.11v-43.64c25.99-28.21,40.28-65.48,40.28-105.18C365.55,70,295.17,0,209.5,0S52.61,70.38,52.61,156.89c0,39.43,13.92,75.75,40.28,105.11v43.67c0,4.7,3.41,8.11,8.11,8.11h55.18v25.7h-12.44c-4.7,0-8.11,3.41-8.11,8.11v29.7h-61.87v-8.33c0-6.74-5.48-12.22-12.22-12.22H12.22c-6.74,0-12.22,5.48-12.22,12.22v152.89c0,6.74,5.48,12.22,12.22,12.22h50.14c6.74,0,12.22-5.48,12.22-12.22v-8.33h270.66v8.33c0,6.74,5.48,12.22,12.22,12.22h49.32c6.74,0,12.22-5.48,12.22-12.22v-153.71c0-6.74-5.48-12.22-12.22-12.22ZM402.78,483.12v34.74h-42.14v-34.74h42.14ZM402.78,423.11v43.79h-42.14v-43.79h42.14ZM360.64,406.89v-34.74h42.14v34.74h-42.14ZM107.16,252.76c-25.08-26.71-38.34-59.86-38.34-95.86,0-77.57,63.11-140.67,140.67-140.67s140.67,63.1,140.67,140.67c0,36.3-13.61,70.34-38.28,95.81-1.99,1.99-1.99,4.22-1.99,5.29v38.74H109.11v-38.74c0-1.06,0-3.26-1.94-5.24ZM246.6,312.96v25.7h-74.2v-25.7h74.2ZM265.51,354.88v21.59h-112.83v-21.59h112.83ZM344.42,392.7v105.44h-29.81v-105.44h29.81ZM118.97,498.13v-105.44h179.42v105.44H118.97ZM102.75,392.7v105.44h-28.17v-105.44h28.17ZM58.36,483.12v34.74H16.22v-34.74h42.14ZM58.36,423.11v43.79H16.22v-43.79h42.14ZM16.22,406.89v-34.74h42.14v34.74H16.22Z"/>
  <path class="cls-1" d="M209.5,276.79c32.08,0,62.35-12.6,85.23-35.49,22.89-22.89,35.49-53.16,35.49-85.23s-12.6-62.35-35.49-85.23c-22.89-22.89-53.16-35.49-85.23-35.49-66.11,0-119.9,54.16-119.9,120.67-.41,32.08,11.75,62.29,34.24,85.05,22.75,23.03,53.17,35.72,85.67,35.72ZM209.5,261.4c-57.62,0-104.5-46.88-104.5-104.5s46.88-104.5,104.5-104.5,104.5,46.88,104.5,104.5-46.88,104.5-104.5,104.5Z"/>
  <path class="cls-1" d="M252.66,105.63c-2.13,0-4.16.85-5.71,2.4l-25.74,25.74c-3.08-1.5-6.73-2.25-10.89-2.25-13.77,0-24.55,10.78-24.55,24.55,0,3.24.82,6.75,2.48,10.66l-13.64,13.64c-1.55,1.55-2.41,3.58-2.41,5.71s.85,4.16,2.4,5.7c1.99,1.99,4.22,1.99,5.29,1.99,1.57,0,4.82-.31,6.01-2.71l12.28-12.28c3.75,1.22,7.54,1.84,11.3,1.84,13.77,0,24.55-10.78,24.55-24.55,0-3.66-1.04-7.21-2.33-9.98l26.65-26.65c3.2-3.2,3.2-8.21,0-11.41-1.55-1.55-3.58-2.4-5.71-2.4ZM209.5,148.56c4.36,0,8.33,3.97,8.33,8.33s-3.97,8.33-8.33,8.33c-2.26,0-4.51-1.24-5.39-2.12-1.84-1.84-2.94-4.16-2.94-6.21,0-5.41,4.29-8.33,8.33-8.33Z"/>
  <path class="cls-1" d="M234.98,204.68h-50.14c-4.7,0-8.11,3.41-8.11,8.11s3.41,8.11,8.11,8.11h50.14c4.7,0,8.11-3.41,8.11-8.11s-4.27-8.11-8.11-8.11Z"/>
  <path class="cls-1" d="M226.76,231.8h-36.17c-4.7,0-8.11,3.41-8.11,8.11s3.41,8.11,8.11,8.11h36.17c4.7,0,8.11-3.41,8.11-8.11s-3.41-8.11-8.11-8.11Z"/>
  <path class="cls-1" d="M128.94,142.21c-8.84,0-15.51,6.67-15.51,15.51s6.67,15.51,15.51,15.51,15.51-6.67,15.51-15.51-6.67-15.51-15.51-15.51Z"/>
  <path class="cls-1" d="M139.63,101.93c-8.84,0-15.51,6.67-15.51,15.51s6.67,15.51,15.51,15.51,15.51-6.67,15.51-15.51-6.67-15.51-15.51-15.51Z"/>
  <path class="cls-1" d="M184.73,87.84c0-8.84-6.67-15.51-15.51-15.51s-15.51,6.67-15.51,15.51,6.67,15.51,15.51,15.51,15.51-6.67,15.51-15.51Z"/>
  <path class="cls-1" d="M290.06,142.21c-8.84,0-15.51,6.67-15.51,15.51s6.67,15.51,15.51,15.51,15.51-6.67,15.51-15.51-6.67-15.51-15.51-15.51Z"/>
  <path class="cls-1" d="M294.88,117.44c0-8.84-6.67-15.51-15.51-15.51s-15.51,6.67-15.51,15.51,6.67,15.51,15.51,15.51,15.51-6.67,15.51-15.51Z"/>
  <path class="cls-1" d="M249.78,72.34c-8.84,0-15.51,6.67-15.51,15.51s6.67,15.51,15.51,15.51,15.51-6.67,15.51-15.51-6.67-15.51-15.51-15.51Z"/>
  <path class="cls-1" d="M209.5,91.84c8.84,0,15.51-6.67,15.51-15.51s-6.67-15.51-15.51-15.51-15.51,6.67-15.51,15.51,6.67,15.51,15.51,15.51Z"/>
</svg>