<?xml version="1.0" encoding="UTF-8"?>
<svg id="Layer_1" data-name="Layer 1" xmlns="http://www.w3.org/2000/svg" viewBox="0 0 444.6 446.1">
  <defs>
    <style>
      .cls-1 {
        fill: #2e2e2e;
      }
    </style>
  </defs>
  <path class="cls-1" d="M262.3,269.2c2.8,0,5-2.3,5-5-.2-75-61.4-136-136.4-136-2.8,0-5,2.2-5,5s2.2,5,5,5c69.5,0,126.2,56.5,126.4,126,0,2.8,2.2,5,5,5Z"/>
  <path class="cls-1" d="M442.6,27.6c0-14.1-11.5-25.6-25.6-25.6h-70.3c-14.1,0-25.6,11.5-25.6,25.6,0,12.35,8.83,22.71,20.5,25.09v181.47c-2.69,2.22-4.4,5.57-4.4,9.35v26.2c0,3.82,1.75,7.21,4.5,9.42v52.51c-.18.76-.21,1.56,0,2.37v19.4c0,5.7-4.8,10.4-10.4,10.4s-10.4-4.8-10.4-10.4v-29.89c2.68-2.22,4.4-5.56,4.4-9.31v-26.2c0-3.77-1.71-7.13-4.4-9.35v-14.05c0-104.8-85.2-190-190-190H52.69c-2.38-11.67-12.73-20.5-25.09-20.5-14.1,0-25.6,11.5-25.6,25.6v70.3c0,14.1,11.5,25.6,25.6,25.6,12.39,0,22.69-8.88,25.08-20.6h78.22c60.4,0,109.6,49.2,109.6,109.6v14.05c-2.69,2.22-4.4,5.57-4.4,9.35v26.2c0,3.77,1.71,7.13,4.4,9.35v29.75c0,24.42,9.7,46.61,25.43,62.94.45.83,1.12,1.51,1.96,1.97,11.3,11.04,25.47,19.17,41.25,23.15.43.19.89.29,1.33.32,6.69,1.58,13.67,2.42,20.83,2.42h0c50,0,90.7-40.7,90.7-90.7v-74.39c2.68-2.22,4.4-5.56,4.4-9.31v-26.2c0-3.77-1.71-7.13-4.4-9.35V52.71c11.7-2.32,20.51-12.63,20.6-25.11ZM331,27.7c0-8.6,7-15.6,15.6-15.6h70.4c8.6,0,15.6,7,15.6,15.6s-6.64,15.21-14.93,15.57c-.22-.03-.44-.07-.67-.07-.35,0-.69.03-1.02.1h-68.36c-.33-.07-.67-.1-1.02-.1-.23,0-.45.04-.67.07-8.29-.36-14.93-7.19-14.93-15.57ZM415.31,241.69c.63.37,1.09,1.06,1.09,1.81v26.2c0,.74-.46,1.43-1.09,1.81-.19.07-.37.14-.55.23-.15.04-.3.06-.46.06h-65c-.1,0-.2-.02-.3-.03-.26-.13-.53-.24-.82-.33-.57-.39-.98-1.04-.98-1.74v-26.2c0-.76.48-1.47,1.14-1.83.14-.05.27-.11.41-.17.18-.05.36-.09.55-.09h65c.16,0,.31.02.46.06.18.09.36.17.55.23ZM412,281.8v35.61c-20.18,1.35-40.4,4.34-60.3,8.96v-44.58h60.3ZM351.6,231.4V53.2h60.4v178.2h-60.4ZM250.5,353.4v-27.1h60.4v11.98c-25.14,8.78-45.45,18.79-59.57,26.63-.54-3.76-.83-7.6-.83-11.51ZM246.93,315.93c-.49-.4-.83-.99-.83-1.63v-26.2c0-1.1,1-2.1,2.1-2.1h65c1.1,0,2.1,1,2.1,2.1v26.2c0,.64-.34,1.23-.83,1.63-.38.11-.74.26-1.07.45-.07,0-.13.02-.2.02h-65c-.07,0-.13-.01-.2-.02-.33-.19-.69-.34-1.07-.45ZM27.6,165.6c-8.6,0-15.6-7-15.6-15.6v-70.3c0-8.6,7-15.6,15.6-15.6s15.1,6.63,15.56,14.91c-.02.19-.06.39-.06.59,0,.35.03.69.1,1.02v68.36c-.07.33-.1.67-.1,1.02,0,.23.04.45.07.67-.36,8.29-7.19,14.93-15.57,14.93ZM215.4,180.2c-22.7-22.7-52.7-35.2-84.5-35.2H53.2v-60.4h77.7c99.2,0,180,80.7,180,180v11.3h-60.3v-11.2c0-31.8-12.5-61.8-35.2-84.5ZM307.59,430.64c-12.11-3.73-23-10.24-31.95-18.76,2.04-12.28,8.86-21.28,16.46-21.28,9.2,0,17,13,17,28.5,0,4.01-.52,7.92-1.51,11.54ZM331.3,434.2c-4.81,0-9.51-.45-14.08-1.25,1.15-4.39,1.78-9.07,1.78-13.85,0-21.6-11.9-38.5-27-38.5-10.86,0-20.23,8.93-24.52,22.26-6.34-8.16-11.14-17.55-13.99-27.76,13.21-7.51,32.82-17.39,57.41-26.28v4.47c0,11.3,9.2,20.4,20.4,20.4h0c11.2,0,20.3-9.1,20.4-20.3v-16.72c19.91-4.73,40.16-7.8,60.3-9.22v25.94c0,44.5-36.1,80.8-80.7,80.8Z"/>
  <path class="cls-1" d="M363.7,94.6c-2.8,0-5,2.2-5,5v69c0,2.8,2.2,5,5,5s5-2.3,5-5v-69c0-2.8-2.2-5-5-5Z"/>
  <path class="cls-1" d="M343.4,389.4c-9.6,5.5-13.9,15.5-9.8,22.6,2.1,3.7,6.2,6,11.2,6.3h1.1c4,0,8.3-1.2,12.2-3.4,4.3-2.5,7.7-6,9.6-9.8,2.3-4.5,2.3-9.2.2-12.9-4.1-7.1-14.9-8.3-24.5-2.8ZM358.7,400.6c-1.1,2.1-3.2,4.1-5.7,5.6-2.6,1.5-5.4,2.2-7.7,2.1-1.5-.1-2.7-.6-3.1-1.3-.9-1.7,1-6.1,6.1-9,2.7-1.5,5.2-2.1,7.2-2.1s3.2.5,3.7,1.3c.4.8.2,2-.5,3.4Z"/>
  <g>
    <path class="cls-1" d="M262.3,271.2c3.86,0,7-3.14,7-7.01-.2-76.09-62.29-137.99-138.4-137.99-3.92,0-7,3.07-7,7s3.08,7,7,7c68.4,0,124.2,55.63,124.4,124,0,3.93,3.08,7,7,7Z"/>
    <path class="cls-1" d="M444.6,27.6c0-15.22-12.38-27.6-27.6-27.6h-70.3c-15.22,0-27.6,12.38-27.6,27.6,0,12.51,8.53,23.48,20.5,26.67v178.98c-2.81,2.65-4.4,6.34-4.4,10.25v26.2c0,3.96,1.63,7.67,4.5,10.33v51.38c-.2.96-.2,1.91,0,2.82v19.17c0,4.55-3.85,8.4-8.4,8.4s-8.4-3.85-8.4-8.4v-28.99c2.81-2.66,4.4-6.33,4.4-10.21v-26.2c0-3.91-1.59-7.59-4.4-10.25v-13.15c0-105.87-86.13-192-192-192H54.27c-3.19-11.97-14.16-20.5-26.67-20.5-15.22,0-27.6,12.38-27.6,27.6v70.3c0,15.22,12.38,27.6,27.6,27.6,12.5,0,23.46-8.57,26.66-20.6h76.64c59.33,0,107.6,48.27,107.6,107.6v13.15c-2.81,2.66-4.4,6.34-4.4,10.25v26.2c0,3.91,1.59,7.59,4.4,10.25v28.85c0,24,9.17,46.77,25.82,64.15.59.98,1.39,1.79,2.36,2.37,11.69,11.36,26.15,19.46,41.83,23.44.51.2,1.06.34,1.64.4,6.91,1.62,14.03,2.44,21.16,2.44,51.12,0,92.7-41.58,92.7-92.7v-73.49c2.81-2.66,4.4-6.33,4.4-10.21v-26.2c0-3.91-1.59-7.59-4.4-10.25V54.3c11.94-3.13,20.51-14.1,20.6-26.7ZM41.2,148.8c-.07.4-.1.8-.1,1.2,0,.26.03.51.06.76-.4,7.21-6.32,12.84-13.56,12.84s-13.6-6.1-13.6-13.6v-70.3c0-7.5,6.1-13.6,13.6-13.6s13.06,5.63,13.55,12.85c-.03.22-.05.43-.05.65,0,.4.03.8.1,1.2v68ZM216.81,178.79c-23.08-23.08-53.59-35.79-85.91-35.79H55.2v-56.4h75.7c98.15,0,178,79.85,178,178v9.3h-56.3v-9.2c0-32.33-12.71-62.84-35.79-85.91ZM248.1,314.21v-26.08s.08-.11.12-.13h64.95s.12.08.13.1v26.11c-.14.06-.29.12-.43.19h-64.34c-.14-.07-.29-.13-.43-.19ZM252.5,353.4v-25.1h56.4v8.56c-19.45,6.87-38.25,15.23-55.95,24.88-.3-2.81-.45-5.6-.45-8.34ZM306.16,428.08c-10.45-3.53-20.2-9.34-28.36-16.91,2.08-10.82,8-18.57,14.3-18.57,7.99,0,15,12.38,15,26.5,0,3.08-.32,6.09-.94,8.98ZM410,353.4c0,43.45-35.3,78.8-78.7,78.8-3.83,0-7.73-.3-11.64-.88.89-4.02,1.34-8.12,1.34-12.22,0-22.71-12.74-40.5-29-40.5-10.62,0-20.01,7.6-25.12,20.09-4.89-6.93-8.59-14.51-11.03-22.62,11.77-6.61,30.03-15.87,53.05-24.38v1.61c0,12.35,10.05,22.4,22.4,22.4s22.29-10,22.4-22.3v-15.14c18.47-4.3,37.39-7.21,56.3-8.65v23.79ZM410,315.55c-18.92,1.36-37.83,4.16-56.3,8.32v-40.07h56.3v31.75ZM414.36,269.73c-.06.02-.12.05-.18.07h-64.68c-.1-.05-.2-.09-.3-.12v-26.14s.02-.05.06-.08c.04-.02.09-.04.13-.05h64.8c.06.03.12.05.18.08.02.02.03.03.03.03,0,0,0,0,0,0v26.16s-.02.04-.04.06ZM353.6,229.4V55.2h56.4v174.2h-56.4ZM417.76,41.26c-.25-.03-.5-.06-.76-.06-.4,0-.8.03-1.2.1h-68c-.39-.07-.8-.1-1.2-.1-.26,0-.51.03-.76.06-7.21-.4-12.84-6.32-12.84-13.56s6.1-13.6,13.6-13.6h70.4c7.5,0,13.6,6.1,13.6,13.6s-5.63,13.16-12.84,13.56Z"/>
    <path class="cls-1" d="M363.7,92.6c-3.92,0-7,3.07-7,7v69c0,3.93,3.08,7,7,7s7-3.14,7-7v-69c0-3.93-3.08-7-7-7Z"/>
    <path class="cls-1" d="M342.41,387.66c-5.97,3.42-10.27,8.6-11.78,14.21-1.08,4-.65,7.85,1.23,11.12,2.44,4.3,7.12,6.97,12.82,7.31h.06s1.16,0,1.16,0c4.32,0,9-1.3,13.2-3.67,4.61-2.68,8.29-6.45,10.38-10.62,2.58-5.04,2.63-10.44.15-14.81-.49-.85-1.07-1.63-1.72-2.35,1.18.22,2.41.35,3.69.35,4.13,0,8.63-1.22,13.11-3.57,4.61-2.68,8.29-6.46,10.38-10.62,2.58-5.04,2.63-10.44.16-14.8-2.44-4.3-7.11-6.97-12.8-7.31-.48-.03-.96-.05-1.45-.05-4.32,0-8.81,1.29-12.98,3.71-5.97,3.42-10.27,8.6-11.78,14.21-1.08,4-.65,7.85,1.25,11.14.5.86,1.1,1.65,1.77,2.37-1.17-.21-2.4-.33-3.67-.33-4.38,0-8.93,1.28-13.17,3.71ZM375.2,368.63c2.03-1.17,4.31-1.84,6.26-1.84.12,0,.24,0,.3,0,.78.05,1.23.19,1.44.28,0,.21-.07.68-.47,1.49-.89,1.7-2.7,3.46-4.92,4.79-2.8,1.59-5.07,1.83-6.18,1.83s-1.66-.21-1.89-.33c-.04-.87,1.32-3.92,5.46-6.23ZM356.93,399.67c-.89,1.7-2.7,3.46-4.93,4.8-2.03,1.17-4.31,1.84-6.26,1.84-.12,0-.23,0-.3,0-.72-.05-1.22-.21-1.46-.33,0-.95,1.34-3.97,5.29-6.22,2.15-1.19,4.36-1.85,6.23-1.85,1.07,0,1.67.2,1.9.3,0,.22-.08.69-.47,1.47Z"/>
  </g>
  <path class="cls-1" d="M382.3,354.9c-4.3-.3-9,.9-13.3,3.4-9.6,5.5-13.9,15.5-9.8,22.6,2.4,4.1,7.1,6.3,12.4,6.3h0c3.9,0,8.1-1.2,12.1-3.3,4.3-2.5,7.7-6,9.6-9.8,2.3-4.5,2.3-9.2.2-12.9-2.1-3.7-6.2-6-11.2-6.3ZM384.5,369.5c-1.1,2.1-3.2,4.1-5.7,5.6-5.1,2.9-9.9,2.4-10.8.8-1-1.7,1-6.1,6.2-9,2.6-1.5,5.4-2.2,7.7-2.1,1.5.1,2.7.5,3.1,1.3.4.8.2,2-.5,3.4Z"/>
</svg>