<?xml version="1.0" encoding="UTF-8"?>
<svg id="Layer_1" data-name="Layer 1" xmlns="http://www.w3.org/2000/svg" viewBox="0 0 433.2 479.75">
  <defs>
    <style>
      .cls-1 {
        fill: #2e2e2e;
      }
    </style>
  </defs>
  <path class="cls-1" d="M432.92,262.73s0,0,0-.01h0l-8.3-30.91c-10.33-38.37-49.78-61.14-88.18-50.89l-176.45,47.3v-96.24c0-3.59,2.39-6.74,5.85-7.7l125.14-34.97c29.71-8.34,47.1-39.12,38.91-68.87l-4.04-14.57c-1.13-4.07-5.24-6.56-9.38-5.68L60.3,54.87c-25.78,5.61-44.2,28.38-44.3,54.76v323.6c-9.56,3.38-15.96,12.39-16,22.53v16c0,4.42,3.58,8,8,8h160c4.42,0,8-3.58,8-8v-16c-.04-10.13-6.45-19.15-16-22.53v-89.1l151.34-40.54,2.08,7.75c3.39,12.78,16.51,20.39,29.29,17,.04-.01.08-.02.11-.03l61.82-16.55c12.8-3.43,20.39-16.6,16.96-29.4h0l-2.08-7.76,7.74-2.07c4.27-1.14,6.8-5.53,5.66-9.8ZM32,207.75h112v224H32v-224ZM160,463.75H16v-8c0-4.42,3.58-8,8-8h128c4.42,0,8,3.58,8,8v8ZM144,131.97v59.78H32v-82.13c.08-18.84,13.24-35.11,31.65-39.12l248.8-53.11,2.02,7.3c5.84,21.25-6.58,43.23-27.79,49.2l-125.14,34.97c-10.36,2.91-17.52,12.35-17.54,23.1ZM400.5,296.29v.02l-61.82,16.57c-4.27,1.15-8.66-1.38-9.8-5.64,0,0,0,0,0-.01l-2.06-7.73,77.28-20.7,2.07,7.73c1.12,4.26-1.41,8.63-5.66,9.77ZM160,327.58v-82.8l180.58-48.42c29.86-7.95,60.53,9.75,68.58,39.58l6.23,23.2-255.4,68.43Z"/>
  <path class="cls-1" d="M390.58,347.21l-6.58-9.54-6.58,9.54c-4.24,6.14-41.42,60.65-41.42,84.54,0,26.51,21.49,48,48,48s48-21.49,48-48c0-23.9-37.18-78.4-41.42-84.54ZM384,463.75c-17.67,0-32-14.33-32-32,0-12.3,17.6-43.42,32-65.6,14.4,22.18,32,53.31,32,65.6,0,17.67-14.33,32-32,32Z"/>
</svg>