<?xml version="1.0" encoding="UTF-8"?>
<svg id="Layer_1" data-name="Layer 1" xmlns="http://www.w3.org/2000/svg" viewBox="0 0 500 491.81">
  <defs>
    <style>
      .cls-1 {
        fill: #2e2e2e;
      }
    </style>
  </defs>
  <path class="cls-1" d="M354.62,268.61c.56,0,1.12-.07,1.66-.2,30.73-7.5,60.66-27.08,84.27-55.13,20.44-24.29,34.39-52.89,38.82-79.32,12.45-2.95,21.08-14.27,20.61-27.06-.6-14.57-12.68-26.01-27.26-25.83h-180.15v-29.98c10.46-14.34,7.32-34.45-7.02-44.91-14.34-10.46-34.45-7.32-44.91,7.02-8.23,11.29-8.23,26.6,0,37.89v29.98H60.49c-14.52,0-26.75,11.59-27.25,25.83-.46,12.79,8.18,24.12,20.63,27.06,3.09,18.42,10.8,37.95,22.24,56.43h-10.63c-1.14,0-2.26.28-3.27.81l-32.67,17.27h-13.68c-8.75,0-15.84,7.1-15.85,15.85v11.4c0,8.75,7.1,15.84,15.85,15.85h.72l17.19,206.44c1.69,19.06,17.6,33.71,36.74,33.81h146.82c5.91,0,11.72-1.44,16.95-4.19h69.44c3.37,0,6.26-2.4,6.88-5.71l7.16-38.13h16.17c9.99-.01,18.09-8.11,18.1-18.1v-36.65h41.56c.66,0,1.18.54,1.19,1.19v56.35c.03,22.65,18.38,41.01,41.04,41.04h37.27c3.87,0,7-3.13,7-7v-25.85c0-3.87-3.13-7-7-7h-37.27c-.66,0-1.18-.54-1.19-1.19v-56.35c-.03-22.65-18.38-41.01-41.04-41.04h-41.56v-32.64c-.01-9.99-8.11-18.09-18.1-18.1h-14.98v-29.84h35.68ZM266.61,14.03c10.02,0,18.14,8.12,18.14,18.14,0,10.02-8.12,18.14-18.14,18.14-10.02,0-18.14-8.12-18.14-18.14h0c.01-10.02,8.13-18.13,18.14-18.14ZM254.64,62c7.68,3.09,16.26,3.09,23.93,0v19.07h-23.93v-19.07ZM47.22,107.4c.24-6.8,6.19-12.33,13.26-12.33h412.24c7.07,0,13.02,5.53,13.27,12.33.26,7.06-5.26,13-12.33,13.26-.16,0-.31,0-.47,0H60.01c-7.07,0-12.8-5.73-12.8-12.8,0-.16,0-.31,0-.47h0ZM68.21,134.67h396.79c-9.52,48.25-54.3,105.61-111.23,119.93h-82.77l.25-3.05c8.73-.03,15.8-7.11,15.81-15.85v-11.4c0-8.75-7.1-15.84-15.85-15.85h-12.93l-32.67-17.27c-1.01-.53-2.13-.81-3.27-.81h-33.01v-5.86c-.01-10.37-8.41-18.77-18.78-18.78h-53.31c-10.37.01-18.77,8.41-18.78,18.78v5.87h-5.67c-12.47-18.09-21.03-37.5-24.6-55.72h0ZM175.35,190.39h-62.87v-5.87c0-2.64,2.14-4.78,4.78-4.78h53.31c2.64,0,4.78,2.14,4.78,4.78v5.87ZM14,235.71v-11.4c0-1.02.83-1.85,1.85-1.85h15.42c1.14,0,2.26-.28,3.27-.81l32.66-17.27h153.42l32.67,17.27c1.01.53,2.13.81,3.27.81h14.66c1.02,0,1.85.83,1.85,1.85v11.4c0,1.02-.83,1.85-1.85,1.85H15.85c-1.02,0-1.85-.83-1.85-1.85ZM70.5,477.81c-11.87-.06-21.75-9.15-22.79-20.97l-17.09-205.28h226.58l-17.09,205.28c-1.05,11.83-10.92,20.91-22.79,20.97H70.5ZM297.9,473.61h-48.86c2.84-4.76,4.56-10.1,5.02-15.62l1.18-14.21h48.26l-5.61,29.83ZM393.59,363.19c14.93.02,27.02,12.11,27.04,27.04v56.35c0,8.39,6.81,15.18,15.19,15.19h30.27v11.85h-30.27c-14.93-.02-27.02-12.11-27.04-27.04v-56.35c0-8.39-6.81-15.18-15.19-15.19h-41.56v-11.85h41.56ZM338.02,316.54v109.13c0,2.26-1.84,4.1-4.1,4.1h-77.51l9.77-117.34h67.74c2.26,0,4.1,1.84,4.1,4.1h0ZM304.94,298.44h-37.6l2.48-29.83h35.11v29.83ZM96.74,339.04l11.54,7.19c1.91,1.2,4.12,1.84,6.38,1.84,4.19,0,8.08-2.16,10.3-5.71l19.22-30.93,8.19,14.19h-.02c-4.35,2.52-5.84,8.09-3.33,12.44.96,1.67,2.43,2.99,4.19,3.77l24.18,10.73c6.69,2.97,14.51-.05,17.48-6.74.56-1.26.92-2.6,1.06-3.96l2.8-26.31c.53-5-3.09-9.48-8.09-10.01-1.92-.2-3.85.21-5.51,1.17h-.02s-15.85-27.44-15.85-27.44c-3.2-5.58-9.3-8.83-15.71-8.36l-23.77,1.72c-3.97.3-7.55,2.48-9.65,5.86l-27.28,43.88c-3.53,5.68-1.79,13.13,3.87,16.67h0ZM154.54,284.86c1.07-.07,2.09.47,2.62,1.4l19.35,33.51c1.48,2.57,4.43,3.93,7.35,3.38l-1.72,16.18-14.88-6.6c1.93-2.25,2.23-5.49.75-8.06l-22.47-39.17,9-.64ZM130.77,287.92l5.56,9.63-22.25,35.79-8.33-5.19,25.02-40.24ZM239.47,410.47c1.73-3.58,1.64-7.78-.24-11.29l-24.29-45.61c-3.13-5.9-10.46-8.15-16.36-5.01,0,0,0,0,0,0l-12.01,6.38c-5.9,3.14-8.15,10.47-5.01,16.37,0,0,0,0,0,0l17.12,32.15-16.38-.03v-.02c0-5.03-4.06-9.11-9.09-9.11-1.92,0-3.8.6-5.36,1.73l-21.41,15.55c-5.92,4.3-7.23,12.58-2.93,18.5.81,1.11,1.79,2.1,2.9,2.91l21.36,15.62c4.06,2.96,9.75,2.08,12.72-1.98,1.13-1.55,1.75-3.43,1.75-5.35v-.02l31.69.05h.03c6.4-.03,12.24-3.67,15.09-9.4l10.43-21.43ZM203.48,361.81l22.27,41.82-11.12-.02-19.81-37.2,8.66-4.6ZM213.95,427.3h0l-38.69-.07h-.01c-2.97,0-5.61,1.87-6.6,4.67l-13.14-9.61,13.17-9.56c.98,2.81,3.63,4.69,6.6,4.69l45.15.2-3.95,8.11c-.48.96-1.46,1.57-2.53,1.57ZM128.42,404.91l-36.42-.39,7.88-14.36h.02c4.41,2.43,9.94.82,12.36-3.59.93-1.69,1.29-3.63,1.05-5.53l-3.37-26.24c-.93-7.25-7.57-12.38-14.82-11.45-1.37.18-2.7.56-3.94,1.15l-23.95,11.25c-4.55,2.14-6.5,7.56-4.36,12.11.82,1.74,2.17,3.18,3.85,4.1h.02s-15.25,27.8-15.25,27.8c-3.11,5.62-2.72,12.53,1,17.77l13.81,19.43c2.31,3.24,6.04,5.17,10.02,5.21l51.67.57h.15c6.63,0,12.02-5.33,12.1-11.96l.16-13.6c.08-6.69-5.28-12.17-11.97-12.25h0ZM63.76,406.48l18.62-33.92c1.43-2.6,1.06-5.83-.92-8.04l14.73-6.92,2.07,16.14c-2.93-.48-5.85.94-7.28,3.54l-21.83,39.53-5.22-7.36c-.61-.88-.68-2.03-.16-2.97h0ZM126.24,428.7l-47.38-.52,5.35-9.75,42.14.46-.12,9.81Z"/>
</svg>