<?xml version="1.0" encoding="UTF-8"?>
<svg id="Layer_1" data-name="Layer 1" xmlns="http://www.w3.org/2000/svg" viewBox="0 0 380 380">
  <defs>
    <style>
      .cls-1 {
        fill: #2e2e2e;
        fill-rule: evenodd;
      }
    </style>
  </defs>
  <path class="cls-1" d="M345.63,3.27c4.37,4.36,4.37,11.44,0,15.81l-93.3,93.3c-4.36,4.36-11.44,4.36-15.81,0-4.36-4.36-4.36-11.44,0-15.81L329.82,3.27c4.37-4.36,11.44-4.36,15.81,0ZM376.73,34.37c4.36,4.36,4.36,11.44,0,15.81l-93.3,93.3c-4.36,4.36-11.44,4.36-15.81,0-4.36-4.36-4.36-11.44,0-15.81l93.3-93.3c4.37-4.36,11.44-4.36,15.81,0Z"/>
  <path class="cls-1" d="M228.75,88.8c4.37-4.36,11.44-4.36,15.81,0l46.65,46.65c4.36,4.36,4.36,11.44,0,15.8l-46.65,46.65c-4.36,4.37-11.44,4.37-15.81,0l-46.65-46.65c-4.36-4.36-4.36-11.44,0-15.8l46.65-46.65ZM236.65,112.51l-30.84,30.84,30.84,30.84,30.84-30.84-30.84-30.84Z"/>
  <path class="cls-1" d="M200.6,139.81c1.95,5.86-1.21,12.18-7.07,14.14l-41.35,13.78-19.37,58.12,21.33,21.33,58.12-19.37,13.78-41.35c1.95-5.86,8.28-9.02,14.14-7.07,5.85,1.95,9.02,8.28,7.07,14.14l-15.55,46.65c-1.11,3.34-3.73,5.95-7.07,7.07l-69.97,23.33c-4.02,1.34-8.44.29-11.44-2.7l-31.1-31.1c-2.99-2.99-4.04-7.42-2.7-11.44l23.32-69.97c1.11-3.34,3.73-5.96,7.07-7.07l46.65-15.55c5.86-1.95,12.18,1.21,14.14,7.07Z"/>
  <path class="cls-1" d="M135.45,151c4.36-4.37,11.44-4.37,15.81,0l77.75,77.75c4.36,4.37,4.36,11.44,0,15.81-4.37,4.37-11.44,4.37-15.81,0l-77.75-77.75c-4.36-4.37-4.36-11.44,0-15.81Z"/>
  <path class="cls-1" d="M130.3,224.47c2.43,5.67-.2,12.24-5.87,14.67l-108.85,46.65c-5.67,2.43-12.24-.2-14.68-5.87-2.43-5.67.2-12.24,5.87-14.68l108.85-46.65c5.67-2.43,12.24.2,14.68,5.87ZM155.53,249.7c5.67,2.43,8.3,9,5.87,14.67l-46.65,108.85c-2.43,5.67-9,8.3-14.68,5.87-5.67-2.43-8.3-9-5.87-14.67l46.65-108.85c2.43-5.67,9-8.3,14.67-5.87Z"/>
  <path class="cls-1" d="M112.38,267.62c4.36,4.37,4.36,11.44,0,15.81l-38.87,38.87c-4.36,4.37-11.44,4.37-15.81,0-4.36-4.36-4.36-11.44,0-15.81l38.87-38.87c4.36-4.37,11.44-4.37,15.81,0Z"/>
</svg>