<?xml version="1.0" encoding="UTF-8"?>
<svg id="Layer_1" data-name="Layer 1" xmlns="http://www.w3.org/2000/svg" viewBox="0 0 480 478.78">
  <defs>
    <style>
      .cls-1 {
        fill: #2e2e2e;
      }
    </style>
  </defs>
  <path class="cls-1" d="M432,0v16h-72c-39.75.04-71.96,32.25-72,72v40h-16v48h15.53c-4.11,36.41-34.88,63.95-71.53,64h-16c-36.64-.05-67.42-27.59-71.53-64h15.53v-48h-16V48h16V0H0v48h16v80H0v48h16.2c3.16,70.8,46.62,133.52,111.8,161.33,17.51,17.05,29.31,32.04,32.39,41.2,2.73,8.19-1.25,19.1-5.45,30.65-5.92,16.28-12.64,34.72-1.6,51.27,6.06,10.95,17.43,17.92,29.95,18.34,12.84-.59,24.57-7.45,31.38-18.34,6.84-10.29,4.4-23.88,1.6-39.61-4.46-24.8-8.98-50.4,18.09-69.75,4.7-.46,9.33-1.15,13.92-1.96,11.06,4.86,16.42,10.95,15.78,18.15-1.36,9.05,2.48,18.11,9.95,23.41,3.82,2.48,8.3,3.79,12.86,3.76,4.14,0,8.22-1.02,11.87-2.98,8.52-4.67,13.65-13.76,13.27-23.46,0-3.69-.18-7.2-.37-10.62-1.5-12.37.61-24.91,6.05-36.12,49.02-32.51,79.54-86.5,82.12-145.26h16.2v-48h-16v-8c0-4.42,3.58-8,8-8h24v16h48V0h-48ZM16,16h112v16H16v-16ZM112,48v80H32V48h80ZM16,160v-16h112v16H16ZM200.49,423.66c2.12,11.82,4.13,22.98.86,27.9-3.88,6.41-10.59,10.58-18.05,11.2-7.1-.64-13.38-4.87-16.63-11.2-6.53-9.79-1.73-22.96,3.34-36.91,4.96-13.6,10.09-27.7,5.6-41.18-3.91-9.56-9.42-18.38-16.3-26.07,13.36,3.05,27.01,4.59,40.71,4.6h10.06c-18.29,23.12-13.38,50.54-9.57,71.66ZM295.66,358.23h.03c.18,3.16.34,6.4.34,9.77.36,3.8-1.54,7.47-4.86,9.37-2.57,1.48-5.75,1.48-8.32,0-2.45-2.16-3.54-5.46-2.86-8.66.76-9.4-3.04-18.59-10.21-24.71,9.25-2.84,18.27-6.41,26.96-10.67-1.47,8.21-1.84,16.59-1.1,24.9ZM216,336h-16c-3.64,0-7.2-.3-10.79-.53l-11.05-27.61,41.41-20.66-7.15-14.32-44.43,22.18-28.43-14.25-7.15,14.32,29.28,14.64,9.43,23.57c-77.37-13.57-135.04-78.88-138.95-157.33h80.18c4.19,45.29,42.16,79.95,87.64,80h16c45.48-.05,83.45-34.71,87.64-80h80.18c-4.38,89.52-78.18,159.89-167.82,160ZM400,160h-112v-16h112v16ZM432,96h-24c-13.25,0-24,10.75-24,24v8h-80v-40c.04-30.91,25.09-55.96,56-56h72v64ZM464,112h-16V16h16v96Z"/>
  <path class="cls-1" d="M320,88v16h16v-16c0-13.25,10.75-24,24-24h16v-16h-16c-22.08.03-39.97,17.92-40,40Z"/>
  <rect class="cls-1" x="80" y="64" width="16" height="48"/>
  <rect class="cls-1" x="80" y="192" width="16" height="16"/>
  <rect class="cls-1" x="392" y="48" width="16" height="16"/>
</svg>