<?xml version="1.0" encoding="UTF-8"?>
<svg id="Layer_1" data-name="Layer 1" xmlns="http://www.w3.org/2000/svg" viewBox="0 0 376 480">
  <defs>
    <style>
      .cls-1 {
        fill: #2e2e2e;
      }
    </style>
  </defs>
  <path class="cls-1" d="M352,0c-13.26,0-24,10.74-24,24v8h-176c-22.08.03-39.97,17.92-40,40v40h-16c-13.26,0-24,10.75-24,24v27.56c-34.85,21.48-56.05,59.51-56,100.44v9.47c-9.56,3.38-15.96,12.39-16,22.53v16c0,4.42,3.58,8,8,8h256c4.42,0,8-3.58,8-8v-16c-.04-10.13-6.45-19.15-16-22.53v-9.47c.05-31.86-12.62-62.41-35.2-84.89-6.27-6.05-13.26-11.32-20.8-15.69v-27.42c0-13.25-10.74-24-24-24h-16v-24c0-4.42,3.58-8,8-8h160v16c0,13.25,10.74,24,24,24h24V0h-24ZM256,296v8H16v-8c0-4.42,3.58-8,8-8h224c4.42,0,8,3.58,8,8ZM209.53,190.45c19.55,19.48,30.52,45.95,30.47,73.55v8H32v-8c-.03-36.15,19.06-69.62,50.18-88h107.69c7.16,3.93,13.76,8.79,19.66,14.45ZM176,128c4.42,0,8,3.58,8,8v24h-96v-24c0-4.42,3.58-8,8-8h80ZM328,64h-160c-13.26,0-24,10.75-24,24v24h-16v-40c0-13.26,10.74-24,24-24h176v16ZM360,104h-8c-4.42,0-8-3.58-8-8V24c0-4.42,3.58-8,8-8h8v88Z"/>
  <path class="cls-1" d="M136,336c-4.42,0-8,3.58-8,8v32c0,4.42,3.58,8,8,8s8-3.58,8-8v-32c0-4.42-3.58-8-8-8Z"/>
  <path class="cls-1" d="M136,400c-4.42,0-8,3.58-8,8v32c0,4.42,3.58,8,8,8s8-3.58,8-8v-32c0-4.42-3.58-8-8-8Z"/>
  <path class="cls-1" d="M232,368c-4.42,0-8,3.58-8,8v32c0,4.42,3.58,8,8,8s8-3.58,8-8v-32c0-4.42-3.58-8-8-8Z"/>
  <path class="cls-1" d="M168,368c-4.42,0-8,3.58-8,8v32c0,4.42,3.58,8,8,8s8-3.58,8-8v-32c0-4.42-3.58-8-8-8Z"/>
  <path class="cls-1" d="M104,368c-4.42,0-8,3.58-8,8v32c0,4.42,3.58,8,8,8s8-3.58,8-8v-32c0-4.42-3.58-8-8-8Z"/>
  <path class="cls-1" d="M40,368c-4.42,0-8,3.58-8,8v32c0,4.42,3.58,8,8,8s8-3.58,8-8v-32c0-4.42-3.58-8-8-8Z"/>
  <path class="cls-1" d="M72,336c-4.42,0-8,3.58-8,8v32c0,4.42,3.58,8,8,8s8-3.58,8-8v-32c0-4.42-3.58-8-8-8Z"/>
  <path class="cls-1" d="M200,336c-4.42,0-8,3.58-8,8v32c0,4.42,3.58,8,8,8s8-3.58,8-8v-32c0-4.42-3.58-8-8-8Z"/>
  <path class="cls-1" d="M200,400c-4.42,0-8,3.58-8,8v32c0,4.42,3.58,8,8,8s8-3.58,8-8v-32c0-4.42-3.58-8-8-8Z"/>
  <path class="cls-1" d="M72,400c-4.42,0-8,3.58-8,8v32c0,4.42,3.58,8,8,8s8-3.58,8-8v-32c0-4.42-3.58-8-8-8Z"/>
  <path class="cls-1" d="M104,432c-4.42,0-8,3.58-8,8v32c0,4.42,3.58,8,8,8s8-3.58,8-8v-32c0-4.42-3.58-8-8-8Z"/>
  <path class="cls-1" d="M168,432c-4.42,0-8,3.58-8,8v32c0,4.42,3.58,8,8,8s8-3.58,8-8v-32c0-4.42-3.58-8-8-8Z"/>
</svg>