<?xml version="1.0" encoding="UTF-8"?>
<svg id="Layer_1" data-name="Layer 1" xmlns="http://www.w3.org/2000/svg" viewBox="0 0 512.05 512">
  <defs>
    <style>
      .cls-1 {
        fill: #2e2e2e;
      }
    </style>
  </defs>
  <path class="cls-1" d="M510.59,230.44c-3.61-10.26-13.31-17.12-24.19-17.1H187.73c-4.71,0-8.53,3.82-8.53,8.53v25.6h-17.07v-119.47h8.53c14.14,0,25.6-11.46,25.6-25.6s-11.46-25.6-25.6-25.6h-8.53v-25.6h8.53c4.71,0,8.53-3.82,8.53-8.53V8.53c0-4.71-3.82-8.53-8.53-8.53H8.53C3.82,0,0,3.82,0,8.53v34.13c0,4.71,3.82,8.53,8.53,8.53h8.53v204.8c0,4.71,3.82,8.53,8.53,8.53h8.53c2.73,54.95,31.57,77.82,57.17,98.05,32.43,25.6,62.98,49.75,45.14,139.18-.95,4.62,2.03,9.13,6.65,10.07.65.13,1.31.19,1.97.17h273.07c4.71,0,8.53-3.82,8.53-8.54,0-1.53-.41-3.03-1.19-4.35-24.4-40.62-24.4-73.64-24.4-123.65,52.39-17.07,90.2-60.84,93.87-112.38,13.34-4.69,20.35-19.31,15.66-32.64ZM170.67,93.87c4.71,0,8.53,3.82,8.53,8.53s-3.82,8.53-8.53,8.53h-8.53v-17.07h8.53ZM17.07,34.13v-17.07h145.07v17.07H17.07ZM34.13,51.2h110.93v196.27H34.13V51.2ZM155.31,494.93c15.36-91.48-19.37-119.47-52.91-145.75-25-19.54-48.38-38.06-51.2-84.65h119.47c3.84,51.2,41.47,93.87,93.35,110.93,0,48.13,0,80.64-22.02,119.47h-86.7ZM403.71,494.93h-141.82c18.94-37.72,19.71-71.17,19.71-114.69,11.21,2.45,22.65,3.71,34.13,3.76h34.13c11.48-.05,22.92-1.3,34.13-3.76,0,43.52.68,76.97,19.71,114.69ZM349.87,366.93h-34.13c-67.24,0-122.45-45.23-127.49-102.4h289.11c-5.04,57.17-60.25,102.4-127.49,102.4ZM486.4,247.47H196.27v-17.07h290.13c4.71,0,8.53,3.82,8.53,8.53s-3.82,8.53-8.53,8.53Z"/>
</svg>