<?xml version="1.0" encoding="UTF-8"?>
<svg id="Layer_1" data-name="Layer 1" xmlns="http://www.w3.org/2000/svg" viewBox="0 0 473.78 512">
  <defs>
    <style>
      .cls-1 {
        fill: #2e2e2e;
      }
    </style>
  </defs>
  <path class="cls-1" d="M456.83,136.99h-6.15v-12.37c0-13.68-11.13-24.82-24.82-24.82h-35.73v-46.94c0-29.15-23.72-52.87-52.86-52.87h-200.77c-29.15,0-52.87,23.72-52.87,52.87v46.94h-35.73c-13.68,0-24.82,11.13-24.82,24.82v12.37h-6.15c-9.34,0-16.95,7.6-16.95,16.95v23.61c0,8.33,6.04,15.26,13.97,16.67l4.77,94.64c-1.46.91-2.82,1.99-4.02,3.26-3.86,4.09-5.89,9.66-5.57,15.27l3.78,66.2c.42,7.42,4.76,13.73,10.93,16.99l4.34,86.18c.99,19.76,17.27,35.24,37.06,35.24h83.85c19.78,0,36.06-15.48,37.06-35.24l4.34-86.18c6.17-3.26,10.51-9.58,10.93-16.99l.21-3.73h70.5l.21,3.73c.42,7.42,4.76,13.73,10.93,16.99l4.34,86.18c.99,19.76,17.27,35.24,37.06,35.24h83.85c19.78,0,36.06-15.48,37.06-35.24l4.34-86.18c6.17-3.26,10.51-9.58,10.93-16.99l3.78-66.2c.32-5.62-1.71-11.18-5.57-15.27-1.2-1.27-2.56-2.34-4.02-3.26l4.77-94.64c7.93-1.41,13.97-8.34,13.97-16.67v-23.61c0-9.34-7.6-16.95-16.95-16.95h0ZM458.76,153.93v23.61c0,1.06-.86,1.92-1.92,1.92h-180.46c-1.06,0-1.92-.86-1.92-1.92v-23.61c0-1.06.86-1.92,1.92-1.92h180.46c1.06,0,1.92.86,1.92,1.92h0ZM424.56,285.68c-4.15,0-7.51,3.36-7.51,7.51s3.36,7.51,7.51,7.51h19.57c1.53,0,2.96.61,4.01,1.73,1.05,1.11,1.59,2.57,1.5,4.1l-3.78,66.2c-.17,2.92-2.58,5.2-5.51,5.2h-147.49c-2.92,0-5.34-2.28-5.51-5.2l-3.78-66.2c-.09-1.53.44-2.99,1.5-4.1,1.05-1.11,2.48-1.73,4.01-1.73h103.47c4.15,0,7.51-3.36,7.51-7.51s-3.36-7.51-7.51-7.51h-3.07v-46.86c0-8.38-6.82-15.21-15.21-15.21h-15.33c-8.38,0-15.21,6.82-15.21,15.21v46.86h-50.69l-4.59-91.19h156.3l-4.59,91.19h-15.6ZM358.75,392.96h15.7v60.05c0,.1-.08.18-.18.18h-15.33c-.1,0-.18-.08-.18-.18v-60.05h0ZM374.45,285.68h-15.7v-46.86c0-.1.08-.18.18-.18h15.33c.1,0,.18.08.18.18v46.86h0ZM435.66,124.62v12.37h-138.12v-12.37c0-5.4,4.39-9.79,9.79-9.79h118.53c5.4,0,9.79,4.39,9.79,9.79h0ZM98.66,52.87c0-20.87,16.98-37.84,37.84-37.84h200.77c20.87,0,37.84,16.98,37.84,37.84v46.94h-17.03v-46.94c0-11.48-9.34-20.82-20.82-20.82h-107.53c-4.15,0-7.51,3.36-7.51,7.51s3.36,7.51,7.51,7.51h107.53c3.19,0,5.79,2.6,5.79,5.79v46.94h-35.73c-13.68,0-24.82,11.13-24.82,24.82v12.37h-6.15c-9.34,0-16.95,7.6-16.95,16.95v23.61c0,8.33,6.04,15.26,13.97,16.67l4.77,94.64c-1.46.91-2.82,1.99-4.02,3.26-3.86,4.09-5.89,9.66-5.57,15.27l.65,11.43h-64.67l.65-11.43c.32-5.62-1.71-11.18-5.57-15.27-1.2-1.27-2.56-2.34-4.02-3.26l4.77-94.64c7.93-1.41,13.97-8.34,13.97-16.67v-23.61c0-9.34-7.6-16.95-16.95-16.95h-6.15v-12.37c0-13.68-11.13-24.82-24.82-24.82h-35.73v-46.94c0-3.19,2.6-5.79,5.79-5.79h61.23c4.15,0,7.51-3.36,7.51-7.51s-3.36-7.51-7.51-7.51h-61.22c-11.48,0-20.82,9.34-20.82,20.82v46.94h-17.03v-46.94h0ZM33.43,377.94c-2.92,0-5.34-2.28-5.51-5.2l-3.78-66.2c-.09-1.53.44-2.99,1.5-4.1,1.05-1.11,2.48-1.73,4.01-1.73h155.05c1.53,0,2.96.61,4.01,1.73,1.05,1.11,1.59,2.57,1.5,4.1l-3.78,66.2c-.17,2.92-2.58,5.2-5.51,5.2H33.43ZM180.73,285.68h-50.69v-46.86c0-8.38-6.82-15.21-15.21-15.21h-15.33c-8.38,0-15.21,6.82-15.21,15.21v46.86h-50.69l-4.59-91.19h156.3l-4.59,91.19ZM115.02,285.68h-15.7v-46.86c0-.1.08-.18.18-.18h15.33c.1,0,.18.08.18.18v46.86h0ZM38.12,124.62c0-5.4,4.39-9.79,9.79-9.79h118.53c5.4,0,9.79,4.39,9.79,9.79v12.37H38.12v-12.37ZM15.02,153.93c0-1.06.86-1.92,1.92-1.92h180.46c1.06,0,1.92.86,1.92,1.92v23.61c0,1.06-.86,1.92-1.92,1.92H16.95c-1.06,0-1.92-.86-1.92-1.92v-23.61ZM149.1,496.98h-83.85c-11.77,0-21.46-9.21-22.05-20.97l-4.18-83.05h45.29v14.11c0,4.15,3.36,7.51,7.51,7.51s7.51-3.36,7.51-7.51v-14.11h15.7v60.05c0,.1-.08.18-.18.18h-15.33c-.1,0-.18-.08-.18-.18v-13.93c0-4.15-3.36-7.51-7.51-7.51s-7.51,3.36-7.51,7.51v13.93c0,8.38,6.82,15.21,15.21,15.21h15.33c8.38,0,15.21-6.82,15.21-15.21v-60.05h45.29l-4.18,83.05c-.59,11.76-10.28,20.97-22.05,20.97ZM202.5,354.83l1.2-20.99h66.39l1.2,20.99h-68.79ZM408.53,496.98h-83.85c-11.77,0-21.46-9.21-22.05-20.97l-4.18-83.05h45.29v60.05c0,8.38,6.82,15.21,15.21,15.21h15.33c8.38,0,15.21-6.82,15.21-15.21v-60.05h45.29l-4.18,83.05c-.59,11.76-10.28,20.97-22.05,20.97h0Z"/>
</svg>