<?xml version="1.0" encoding="UTF-8"?>
<svg id="Layer_1" data-name="Layer 1" xmlns="http://www.w3.org/2000/svg" viewBox="0 0 340.78 511">
  <defs>
    <style>
      .cls-1 {
        fill: #2e2e2e;
      }
    </style>
  </defs>
  <path class="cls-1" d="M170.39,221.34c37.64,0,68.15-30.52,68.15-68.16s-30.51-68.15-68.15-68.15-68.15,30.52-68.15,68.15c.04,37.63,30.53,68.11,68.15,68.16ZM170.39,102.07c28.23,0,51.12,22.88,51.12,51.12s-22.88,51.12-51.12,51.12-51.12-22.89-51.12-51.12c.03-28.22,22.9-51.08,51.12-51.12Z"/>
  <path class="cls-1" d="M170.38,161.71c2.85,0,5.51-1.42,7.1-3.79l17.04-25.56c1.72-2.53,1.95-5.8.6-8.54-1.35-2.75-4.07-4.56-7.13-4.75s-5.98,1.28-7.65,3.84l-17.04,25.56c-1.74,2.61-1.91,5.97-.43,8.74,1.48,2.77,4.36,4.5,7.5,4.5Z"/>
  <path class="cls-1" d="M212.99,511h34.08c9.41-.01,17.03-7.63,17.04-17.04v-22.71c18.68-2.2,37.35-4.84,55.96-8.36,12.05-2.32,20.75-12.88,20.72-25.15V39.03c.03-12.27-8.67-22.83-20.72-25.15-18.07-3.42-36.19-6-54.34-8.18-.53-.16-1.07-.27-1.62-.32-.15,0-.28.08-.43.09-61.98-7.28-124.6-7.28-186.58,0-.14-.01-.27-.09-.42-.09-.54.05-1.07.16-1.58.32-18.16,2.18-36.29,4.75-54.37,8.18C8.67,16.2-.03,26.76,0,39.03v398.7c-.03,12.27,8.67,22.83,20.72,25.15,18.61,3.52,37.27,6.16,55.96,8.36v22.72c.01,9.41,7.63,17.03,17.04,17.04h34.08c9.41-.01,17.03-7.63,17.04-17.04v-17.58c8.52.27,17.04.6,25.56.6s17.04-.33,25.56-.6v17.58c0,9.41,7.63,17.03,17.04,17.04ZM247.06,493.96h-34.08v-18.22c11.36-.61,22.72-1.39,34.08-2.48v20.7ZM170.39,16.82c28.46.07,56.91,1.68,85.19,4.84v131.53c0,47.05-38.14,85.2-85.19,85.2s-85.19-38.14-85.19-85.2V21.66c28.29-3.16,56.73-4.77,85.19-4.84ZM127.79,493.96h-34.08v-20.7c11.35,1.09,22.71,1.88,34.08,2.48v18.22ZM136.42,459.14l-.11-.02-.09.02c-37.71-1.64-75.26-5.98-112.34-12.99-4.01-.8-6.88-4.33-6.84-8.41V39.03c-.03-4.09,2.84-7.62,6.85-8.41,14.73-2.78,29.49-5.01,44.27-6.95v129.52c0,56.46,45.77,102.23,102.23,102.23s102.23-45.77,102.23-102.23V23.66c14.78,1.95,29.55,4.17,44.27,6.95,4.01.8,6.88,4.33,6.84,8.42v398.7c.03,4.08-2.84,7.61-6.84,8.41h0c-37.09,7.01-74.63,11.35-112.34,12.99l-.09-.02-.11.02c-22.64.99-45.29.99-67.94,0Z"/>
  <path class="cls-1" d="M230.02,332.1v-34.08c-.01-9.41-7.63-17.03-17.04-17.04h-85.2c-9.41.01-17.03,7.63-17.04,17.04v34.08c.01,9.41,7.63,17.03,17.04,17.04h85.2c9.41-.01,17.03-7.63,17.04-17.04ZM127.79,298.01h85.2v34.08s-85.2,0-85.2,0v-34.08Z"/>
  <path class="cls-1" d="M42.6,263.94c-4.7,0-8.52,3.81-8.52,8.52v8.52c0,4.71,3.81,8.52,8.52,8.52s8.52-3.81,8.52-8.52v-8.52c0-4.71-3.81-8.52-8.52-8.52Z"/>
  <path class="cls-1" d="M42.6,306.54c-4.7,0-8.52,3.81-8.52,8.52v102.23c0,4.7,3.81,8.52,8.52,8.52s8.52-3.81,8.52-8.52v-102.23c0-4.71-3.81-8.52-8.52-8.52Z"/>
  <path class="cls-1" d="M119.27,366.17h-17.04c-4.71,0-8.52,3.81-8.52,8.52s3.81,8.52,8.52,8.52h17.04c4.7,0,8.52-3.81,8.52-8.52s-3.81-8.52-8.52-8.52Z"/>
  <path class="cls-1" d="M119.27,400.25h-17.04c-4.71,0-8.52,3.81-8.52,8.52s3.81,8.52,8.52,8.52h17.04c4.7,0,8.52-3.81,8.52-8.52s-3.81-8.52-8.52-8.52Z"/>
  <path class="cls-1" d="M212.99,374.69c0,4.71,3.81,8.52,8.52,8.52h17.04c4.71,0,8.52-3.81,8.52-8.52s-3.81-8.52-8.52-8.52h-17.04c-4.7,0-8.52,3.81-8.52,8.52Z"/>
  <path class="cls-1" d="M238.54,400.25h-17.04c-4.7,0-8.52,3.81-8.52,8.52s3.81,8.52,8.52,8.52h17.04c4.71,0,8.52-3.81,8.52-8.52s-3.81-8.52-8.52-8.52Z"/>
</svg>