<?xml version="1.0" encoding="UTF-8"?>
<svg id="Layer_1" data-name="Layer 1" xmlns="http://www.w3.org/2000/svg" viewBox="0 0 496 496">
  <defs>
    <style>
      .cls-1 {
        fill: #2e2e2e;
      }
    </style>
  </defs>
  <path class="cls-1" d="M432,0h-16v256h-32V0h-16v112h-184v-32c-.04-39.75-32.25-71.96-72-72h-32c0-4.42-3.58-8-8-8h-32c-4.42,0-8,3.58-8,8H0v16h32v32H0v16h32c0,4.42,3.58,8,8,8h32c4.42,0,8-3.58,8-8h32c4.42,0,8,3.58,8,8v32H0v16h120v32H0v16h120v32H0v16h208c30.91.04,55.96,25.09,56,56v32c0,13.25,10.75,24,24,24h32v32h-32c-30.91-.04-55.96-25.09-56-56v-32c0-13.25-10.75-24-24-24H0v16h120v144c.04,39.75,32.25,71.96,72,72h224c0,4.42,3.58,8,8,8h32c4.42,0,8-3.58,8-8h32v-16h-32v-32h32v-16h-32c0-4.42-3.58-8-8-8h-32c-4.42,0-8,3.58-8,8h-224c-4.42,0-8-3.58-8-8v-144h24c4.42,0,8,3.58,8,8v32c.04,39.75,32.25,71.96,72,72h32c0,4.42,3.58,8,8,8h32c4.42,0,8-3.58,8-8h64c0,4.42,3.58,8,8,8h32c4.42,0,8-3.58,8-8h16v-16h-16v-32h16v-16h-16c0-4.42-3.58-8-8-8h-32c-4.42,0-8,3.58-8,8v-16c4.42,0,8-3.58,8-8v-32c0-4.42-3.58-8-8-8v-80h64v-16h-64v-32h64v-16h-64V0ZM64,64h-16V16h16v48ZM432,432h16v48h-16v-48ZM192,440h224v32h-224c-30.91-.04-55.96-25.09-56-56v-144h32v144c0,13.25,10.75,24,24,24ZM448,328h16v48h-16v-48ZM424,288h-48v-16h48v16ZM368,128v32h-184v-32h184ZM112,56h-32V24h32c30.91.04,55.96,25.09,56,56v128h-32V80c0-13.25-10.75-24-24-24ZM352,376h-16v-48h16v48ZM328,312c-4.42,0-8,3.58-8,8h-32c-4.42,0-8-3.58-8-8v-32c-.04-39.75-32.25-71.96-72-72h-24v-32h184v80c-4.42,0-8,3.58-8,8v32c0,4.42,3.58,8,8,8v16c0-4.42-3.58-8-8-8h-32ZM424,336h8v32h-64v-32h8c4.42,0,8-3.58,8-8v-24h32v24c0,4.42,3.58,8,8,8Z"/>
</svg>