<?xml version="1.0" encoding="UTF-8"?>
<svg id="Layer_1" data-name="Layer 1" xmlns="http://www.w3.org/2000/svg" viewBox="0 0 500 536.48">
  <defs>
    <style>
      .cls-1 {
        fill: #fff;
      }
    </style>
  </defs>
  <path class="cls-1" d="M444,373.4c-32.41-27.72-65.3-44.51-97.31-16.83l-19.11,16.73c-13.99,12.14-39.99,68.88-140.52-46.77-100.51-115.5-40.7-133.49-26.69-145.53l19.22-16.75c31.84-27.74,19.83-62.66-3.14-98.61l-13.86-21.77C139.5,8,114.38-15.55,82.45,12.15l-17.25,15.07c-14.11,10.28-53.55,43.69-63.12,107.17-11.51,76.17,24.81,163.39,108.03,259.08,83.12,95.74,164.49,143.83,241.58,142.99,64.06-.69,102.75-35.07,114.86-47.57l17.31-15.09c31.84-27.68,12.06-55.86-20.37-83.64l-19.49-16.77Z"/>
</svg>